<svg width="512" height="512" viewBox="0 0 512 512" fill="none" xmlns="http://www.w3.org/2000/svg">
<g clip-path="url(#clip0_529_3563)">
<path d="M278.292 272.769C278.292 241.04 252.571 215.32 220.842 215.32H174.095C142.367 215.32 116.645 241.041 116.645 272.769V336.45C116.645 351.528 120.786 365.634 127.975 377.714C127.949 412.164 127.676 464.147 124.874 479.556C122.155 494.508 132.072 508.833 147.024 511.552C161.981 514.27 176.302 504.35 179.02 489.402C181.528 475.609 182.47 448.481 182.817 415.924C191.822 417.574 200.839 417.709 209.789 416.34C215.511 436.047 219.622 460.563 219.622 484.479C219.622 499.676 231.942 511.996 247.139 511.996C262.336 511.996 274.656 499.676 274.656 484.479C274.656 463.807 270.996 424.054 258.92 388.919C270.989 374.798 278.292 356.482 278.292 336.45V272.769Z" fill="#D1C4E9"/>
<path d="M116.791 341.158C117.558 354.462 121.54 366.901 127.975 377.714C127.949 412.164 127.676 464.147 124.874 479.556C122.155 494.508 132.072 508.833 147.024 511.552C161.981 514.27 176.302 504.35 179.02 489.402C181.528 475.609 182.47 448.481 182.817 415.924C191.822 417.574 200.839 417.709 209.789 416.341C215.511 436.048 219.622 460.564 219.622 484.48C219.622 499.677 231.942 511.997 247.139 511.997C262.336 511.997 274.656 499.677 274.656 484.48C274.656 463.808 270.996 424.055 258.92 388.92C270.036 375.914 277.093 359.345 278.141 341.159H116.791V341.158Z" fill="#8DAEE1"/>
<path d="M191.937 341.158C192.63 341.911 193.33 342.661 194.06 343.391L259.806 409.136C261.857 411.187 264.02 413.084 266.261 414.856C264.259 406.163 261.837 397.406 258.92 388.918C270.036 375.912 277.093 359.343 278.141 341.157H191.937V341.158Z" fill="#6A95D6"/>
<path d="M197.469 244.304C270.155 244.304 329.078 192.095 329.078 127.691C329.078 63.2874 270.155 11.078 197.469 11.078C124.783 11.078 65.8599 63.2874 65.8599 127.691C65.8599 192.095 124.783 244.304 197.469 244.304Z" fill="#FFD3BD"/>
<path d="M116.726 181.203C133.18 181.203 146.518 170.581 146.518 157.478C146.518 144.375 133.18 133.753 116.726 133.753C100.272 133.753 86.9338 144.375 86.9338 157.478C86.9338 170.581 100.272 181.203 116.726 181.203Z" fill="#EDA1AB"/>
<path d="M278.211 181.203C294.665 181.203 308.003 170.581 308.003 157.478C308.003 144.375 294.665 133.753 278.211 133.753C261.757 133.753 248.419 144.375 248.419 157.478C248.419 170.581 261.757 181.203 278.211 181.203Z" fill="#EDA1AB"/>
<path d="M148.27 139.161C144.128 139.161 140.77 135.803 140.77 131.661C140.77 127.977 137.773 124.98 134.089 124.98C130.405 124.98 127.408 127.977 127.408 131.661C127.408 135.803 124.05 139.161 119.908 139.161C115.766 139.161 112.408 135.803 112.408 131.661C112.408 119.707 122.134 109.98 134.089 109.98C146.043 109.98 155.77 119.706 155.77 131.661C155.77 135.803 152.412 139.161 148.27 139.161Z" fill="#4E5660"/>
<path d="M275.028 139.161C270.885 139.161 267.528 135.803 267.528 131.661C267.528 127.977 264.531 124.98 260.847 124.98C257.163 124.98 254.167 127.977 254.167 131.661C254.167 135.803 250.809 139.161 246.667 139.161C242.525 139.161 239.167 135.803 239.167 131.661C239.167 119.707 248.893 109.98 260.847 109.98C272.802 109.98 282.528 119.706 282.528 131.661C282.528 135.803 279.171 139.161 275.028 139.161Z" fill="#4E5660"/>
<path d="M197.469 162.587C189.536 162.587 181.992 159.151 176.773 153.162C174.052 150.04 174.377 145.302 177.5 142.581C180.622 139.86 185.36 140.185 188.082 143.308C190.452 146.028 193.874 147.588 197.47 147.588C201.065 147.588 204.487 146.028 206.858 143.308C209.579 140.186 214.316 139.86 217.44 142.582C220.563 145.303 220.888 150.041 218.166 153.163C212.944 159.152 205.401 162.587 197.469 162.587Z" fill="#4E5660"/>
<path d="M281.659 387.283L215.914 321.538C199.448 305.072 199.448 278.377 215.914 261.911L356.609 121.216C373.075 104.75 399.771 104.75 416.236 121.216L481.981 186.961C498.447 203.426 498.447 230.122 481.981 246.588L341.286 387.283C324.82 403.748 298.124 403.748 281.659 387.283Z" fill="#8DE1CE"/>
<path d="M342.508 135.316L230.014 247.81C252.937 272.569 252.937 310.878 230.014 335.638L267.559 373.183C292.318 350.26 330.628 350.26 355.387 373.183L467.881 260.689C444.958 235.93 444.958 197.621 467.881 172.862L430.336 135.317C405.577 158.239 367.267 158.239 342.508 135.316Z" fill="#6FCD90"/>
<path d="M380.737 286.112C395.539 271.31 393.277 245.049 375.684 227.456C358.091 209.863 331.83 207.601 317.028 222.403C302.226 237.205 304.488 263.466 322.081 281.059C339.673 298.652 365.935 300.914 380.737 286.112Z" fill="#8DE1CE"/>
<path d="M221.212 296.737C201.842 292.936 187.819 285.126 178.058 276.595C159.611 283.888 146.544 306.082 141.759 317.863C159.265 333.116 182.471 345.218 210.616 350.741C225.628 353.685 240.01 343.848 242.916 329.037C245.841 314.124 236.124 299.664 221.212 296.737Z" fill="#FFD3BD"/>
<path d="M159.753 249.717C158.532 244.932 156.121 240.768 152.924 237.449C145.734 235.158 138.833 232.33 132.285 229.016C130.301 229.076 128.293 229.344 126.289 229.855C111.564 233.611 102.671 248.594 106.428 263.319C111.284 282.357 123.379 301.848 141.759 317.863C146.544 306.082 159.61 283.888 178.058 276.595C167.061 266.985 161.473 256.46 159.753 249.717Z" fill="#B0ADE2"/>
<path d="M331.294 58.966C310.051 32.052 265.646 0 197.469 0C101.905 0 25.4499 39.724 25.4499 140.387C25.4499 211.868 22.9099 250.172 18.2159 269.997C15.8359 280.049 21.4379 290.308 31.1759 293.756C58.0799 303.283 85.8339 309.179 116.646 312.541V287.85C112.171 280.175 108.843 272.292 106.73 264.473C103.238 251.547 108.974 237.66 121.01 231.795C124.73 229.982 128.549 229.128 132.285 229.016C92.6059 208.932 65.8599 171.08 65.8599 127.691C65.8599 114.822 68.2169 102.443 72.5639 90.868C74.7809 84.965 80.6369 81.285 86.9149 81.883C122.488 85.276 167.609 76.384 190.35 67.274C194.893 65.454 199.959 65.415 204.5 67.239C230.822 77.81 287.346 88.121 324.16 79.291C333.229 77.116 337.072 66.287 331.294 58.966Z" fill="#DAA985"/>
<path d="M116.646 312.54V287.849C112.171 280.174 108.843 272.291 106.73 264.472C103.238 251.546 108.974 237.659 121.01 231.794C124.73 229.981 128.549 229.127 132.285 229.015C92.6058 208.932 65.8598 171.08 65.8598 127.691C65.8598 240.357 65.6228 278.802 55.8718 301.425C75.1418 306.61 95.1478 310.195 116.646 312.54Z" fill="#D1986F"/>
<path d="M127.122 448.377C126.663 462.151 125.959 473.595 124.875 479.556C122.156 494.508 132.073 508.833 147.025 511.552C161.982 514.27 176.303 504.35 179.021 489.402C180.469 481.438 181.394 469.021 181.985 453.686L127.122 448.377Z" fill="#6E768F"/>
<path d="M219.622 484.479C219.622 499.676 231.942 511.996 247.139 511.996C262.336 511.996 274.656 499.676 274.656 484.479C274.656 475.581 273.975 463.141 272.239 449.061L217.723 455.22C218.926 464.828 219.622 474.701 219.622 484.479Z" fill="#6E768F"/>
</g>
<defs>
<clipPath id="clip0_529_3563">
<rect width="512" height="512" fill="white"/>
</clipPath>
</defs>
</svg>
