<svg width="512" height="512" viewBox="0 0 512 512" fill="none" xmlns="http://www.w3.org/2000/svg">
    <path d="M149.173 252.721C174.596 278.144 186.494 311.879 192.06 337.479C196.309 357.02 178.948 374.381 159.407 370.132C133.808 364.566 100.072 352.668 74.649 327.245C49.226 301.822 37.328 268.087 31.762 242.488C27.513 222.947 44.874 205.586 64.415 209.835C90.015 215.401 123.75 227.299 149.173 252.721Z" fill="#6FCD90"/>
    <path d="M103.825 458.151C104.829 451.618 105.392 444.907 105.392 438.062C105.392 402.109 89.95 369.841 75.785 347.804C64.972 330.982 40.42 330.982 29.607 347.804C15.442 369.841 0 402.109 0 438.062V438.267C0.018 449.287 9.1 458.151 20.12 458.151H103.825Z" fill="#6FCD90"/>
    <path d="M362.827 252.721C337.404 278.144 325.506 311.879 319.94 337.479C315.691 357.02 333.052 374.381 352.593 370.132C378.192 364.566 411.928 352.668 437.35 327.245C462.773 301.822 474.671 268.087 480.237 242.488C484.486 222.947 467.125 205.586 447.584 209.835C421.985 215.401 388.25 227.299 362.827 252.721Z" fill="#6FCD90"/>
    <path d="M408.175 458.151C407.171 451.618 406.608 444.907 406.608 438.062C406.608 402.109 422.05 369.841 436.215 347.804C447.028 330.982 471.58 330.982 482.393 347.804C496.558 369.841 512 402.109 512 438.062V438.267C511.982 449.287 502.9 458.151 491.88 458.151H408.175Z" fill="#6FCD90"/>
    <path d="M464.756 312.118C457.346 297.22 439.263 291.151 424.366 298.56C414.144 303.644 404.618 308.075 395.599 311.917C400.202 329.375 413.548 356.163 420.406 366.817C430.216 362.616 440.434 357.862 451.198 352.508C466.095 345.098 472.165 327.015 464.756 312.118Z" fill="#FFD3BD"/>
    <path d="M420.406 366.817C379.012 384.543 344.946 392.339 308.339 392.993C291.525 393.263 277.974 379.899 277.68 363.41C277.383 346.775 290.628 333.048 307.263 332.751C335.702 332.243 362.119 326.18 395.599 311.918C400.203 329.375 413.548 356.162 420.406 366.817Z" fill="#D1986F"/>
    <path d="M47.244 312.118C54.654 297.22 72.737 291.151 87.634 298.56C97.856 303.644 107.382 308.075 116.401 311.917C111.798 329.375 98.452 356.163 91.595 366.817C81.785 362.616 71.567 357.862 60.803 352.508C45.905 345.098 39.835 327.015 47.244 312.118Z" fill="#FFD3BD"/>
    <path d="M91.594 366.817C132.988 384.543 167.054 392.339 203.661 392.993C220.475 393.263 234.026 379.899 234.32 363.41C234.617 346.775 221.372 333.048 204.737 332.751C176.298 332.243 149.881 326.18 116.401 311.918C111.798 329.375 98.452 356.162 91.594 366.817Z" fill="#D1986F"/>
    <path d="M281.59 325.534H230.41C195.673 325.534 167.513 353.694 167.513 388.431V458.151H248.5V344.199H263.5V458.151H344.487V388.431C344.487 353.694 316.327 325.534 281.59 325.534Z" fill="#DAA985"/>
    <path d="M248.5 344.199H263.5V458.151H248.5V344.199Z" fill="#F7DFB7"/>
    <path d="M256 357.266C335.578 357.266 400.089 300.106 400.089 229.595C400.089 159.084 335.578 101.924 256 101.924C176.422 101.924 111.911 159.084 111.911 229.595C111.911 300.106 176.422 357.266 256 357.266Z" fill="#FFD3BD"/>
    <path d="M368.845 116.123C389.868 122.521 409.154 133.263 423.033 143.578C431.959 150.212 429.429 164.243 418.753 167.357C378.164 179.194 327.105 186.828 256 186.828C184.895 186.828 133.836 179.194 93.247 167.357C82.571 164.244 80.042 150.212 88.967 143.578C102.846 133.263 122.131 122.521 143.154 116.123H368.845Z" fill="#DAA985"/>
    <path d="M268.649 54.298C285.26 68.063 302.1 86.38 313.136 115.417H297.016C288.447 95.205 275.696 79.145 256 63.36C236.304 79.145 223.553 95.205 214.984 115.417H198.864C209.9 86.38 226.74 68.063 243.351 54.298C165.372 59.873 143.155 116.122 143.155 116.122C158.561 128.314 219.298 134.435 256 134.435C292.702 134.435 353.439 128.315 368.845 116.122C368.845 116.123 346.628 59.873 268.649 54.298Z" fill="#D1986F"/>
    <path d="M317.652 129.081C307.111 91.915 287.727 70.108 268.648 54.298C264.583 54.007 260.372 53.849 255.999 53.849C251.626 53.849 247.416 54.008 243.35 54.298C224.272 70.108 204.887 91.915 194.346 129.081C194.258 129.389 194.158 129.764 194.048 130.188C198.991 130.852 204.053 131.438 209.135 131.946C217.43 103.5 231.225 83.216 256 63.36C280.775 83.216 294.57 103.499 302.863 131.946C307.945 131.438 313.006 130.852 317.95 130.188C317.839 129.759 317.738 129.382 317.652 129.081Z" fill="#F7DFB7"/>
    <path d="M103.316 458.151H227.319C220.265 438.6 209.309 417.835 192.274 400.8C166.851 375.378 133.116 363.479 107.516 357.913C87.9749 353.664 70.6139 371.025 74.8629 390.566C79.2469 410.727 87.5639 435.932 103.316 458.151Z" fill="#8DE1CE"/>
    <path d="M408.684 458.151H284.681C291.735 438.6 302.691 417.835 319.726 400.8C345.149 375.378 378.884 363.479 404.483 357.913C424.024 353.664 441.385 371.025 437.136 390.566C432.753 410.727 424.436 435.932 408.684 458.151Z" fill="#8DE1CE"/>
    <path d="M138.92 411.363C135.991 408.434 131.242 408.434 128.314 411.363C125.385 414.292 125.385 419.041 128.314 421.969L164.496 458.151H185.709L138.92 411.363Z" fill="#6FCD90"/>
    <path d="M347.505 458.151L383.687 421.969C386.616 419.04 386.616 414.291 383.687 411.363C380.758 408.434 376.009 408.434 373.081 411.363L326.293 458.151H347.505Z" fill="#6FCD90"/>
    <path d="M169.623 291.965C187.225 291.965 201.495 280.602 201.495 266.584C201.495 252.566 187.225 241.203 169.623 241.203C152.021 241.203 137.751 252.566 137.751 266.584C137.751 280.602 152.021 291.965 169.623 291.965Z" fill="#EDA1AB"/>
    <path d="M342.377 291.965C359.979 291.965 374.249 280.602 374.249 266.584C374.249 252.566 359.979 241.203 342.377 241.203C324.775 241.203 310.505 252.566 310.505 266.584C310.505 280.602 324.775 291.965 342.377 291.965Z" fill="#EDA1AB"/>
    <path d="M256 266.014C265.344 266.014 272.918 257.538 272.918 247.083C272.918 236.628 265.344 228.152 256 228.152C246.656 228.152 239.082 236.628 239.082 247.083C239.082 257.538 246.656 266.014 256 266.014Z" fill="#4E5660"/>
    <path d="M174.951 243.456C170.809 243.456 167.451 240.098 167.451 235.956V223.594C167.451 219.452 170.809 216.094 174.951 216.094C179.093 216.094 182.451 219.452 182.451 223.594V235.956C182.451 240.098 179.093 243.456 174.951 243.456Z" fill="#4E5660"/>
    <path d="M337.049 243.456C332.907 243.456 329.549 240.098 329.549 235.956V223.594C329.549 219.452 332.907 216.094 337.049 216.094C341.191 216.094 344.549 219.452 344.549 223.594V235.956C344.549 240.098 341.191 243.456 337.049 243.456Z" fill="#4E5660"/>
</svg>