<svg width="512" height="512" viewBox="0 0 512 512" fill="none" xmlns="http://www.w3.org/2000/svg">
<g clip-path="url(#clip0_529_2996)">
<path d="M425.544 477.355C420.445 455.945 409.306 418.227 405.224 385.379C417.142 371.061 424.317 352.654 424.317 332.568V267.479C424.317 235.049 398.027 208.759 365.597 208.759H317.817C285.387 208.759 259.097 235.049 259.097 267.479V332.568C259.097 350.203 264.64 366.534 274.055 379.95C265.081 414.314 261.689 455.206 261.689 483.87C261.689 499.402 274.281 511.995 289.814 511.995C305.347 511.995 317.939 499.402 317.939 483.87C317.939 463.474 319.973 437.053 324.287 413.322C333.844 415.374 343.219 415.706 352.83 414.412C358.307 444.084 366.796 473.463 370.824 490.384C373.899 503.303 385.434 512 398.16 512C416.359 512 429.745 495.001 425.544 477.355Z" fill="#FBF1CF"/>
<path d="M259.336 338.821C260.48 354.057 265.764 368.133 274.054 379.949C265.08 414.313 261.688 455.205 261.688 483.869C261.688 499.401 274.28 511.994 289.813 511.994C305.346 511.994 317.938 499.401 317.938 483.869C317.938 463.473 319.972 437.052 324.286 413.321C333.843 415.373 343.218 415.705 352.829 414.411C358.306 444.083 366.795 473.462 370.823 490.383C373.899 503.303 385.434 512 398.16 512C416.359 512 429.745 495.001 425.544 477.355C420.445 455.945 409.306 418.227 405.224 385.379C415.893 372.562 422.742 356.463 424.065 338.822H259.336V338.821Z" fill="#8DE1CE"/>
<path d="M370.823 490.382C373.899 503.303 385.434 512 398.16 512C416.359 512 429.745 495.001 425.544 477.355C424.097 471.279 422.163 463.887 420.042 455.668L365.895 470.958C367.826 478.422 369.548 485.027 370.823 490.382Z" fill="#6E768F"/>
<path d="M318.487 464.322L262.292 461.658C261.881 469.58 261.688 477.071 261.688 483.868C261.688 499.4 274.28 511.993 289.813 511.993C305.346 511.993 317.938 499.4 317.938 483.868C317.938 477.811 318.122 471.215 318.487 464.322Z" fill="#6E768F"/>
<path d="M341.706 269.289C370.165 269.289 397.583 262.796 421.841 250.596C414.587 226.397 392.157 208.759 365.597 208.759H317.817C291.257 208.759 268.826 226.398 261.573 250.596C285.83 262.795 313.247 269.289 341.706 269.289Z" fill="#F7DFB7"/>
<path d="M341.706 238.384C415.999 238.384 476.225 185.02 476.225 119.192C476.225 53.3641 415.999 0 341.706 0C267.413 0 207.187 53.3641 207.187 119.192C207.187 185.02 267.413 238.384 341.706 238.384Z" fill="#CB9D82"/>
<path d="M341.706 238.384C415.999 238.384 476.225 185.02 476.225 119.192C476.225 53.3641 415.999 0 341.706 0C267.413 0 207.187 53.3641 207.187 119.192C207.187 185.02 267.413 238.384 341.706 238.384Z" fill="#CB9D82"/>
<path d="M259.748 144.876C276.45 144.876 289.989 134.094 289.989 120.794C289.989 107.494 276.45 96.712 259.748 96.712C243.046 96.712 229.507 107.494 229.507 120.794C229.507 134.094 243.046 144.876 259.748 144.876Z" fill="#EDA1AB"/>
<path d="M423.664 144.876C440.366 144.876 453.905 134.094 453.905 120.794C453.905 107.494 440.366 96.712 423.664 96.712C406.962 96.712 393.423 107.494 393.423 120.794C393.423 134.094 406.962 144.876 423.664 144.876Z" fill="#EDA1AB"/>
<path d="M277.373 105.111C273.231 105.111 269.873 101.754 269.873 97.611V85.249C269.873 81.106 273.231 77.749 277.373 77.749C281.515 77.749 284.873 81.106 284.873 85.249V97.611C284.873 101.754 281.515 105.111 277.373 105.111Z" fill="#4E5660"/>
<path d="M406.04 105.111C401.898 105.111 398.54 101.754 398.54 97.611V85.249C398.54 81.106 401.898 77.749 406.04 77.749C410.182 77.749 413.54 81.106 413.54 85.249V97.611C413.54 101.754 410.182 105.111 406.04 105.111Z" fill="#4E5660"/>
<path d="M341.706 112.471C333.038 112.471 324.795 108.717 319.091 102.171C316.37 99.0481 316.695 94.3111 319.818 91.5891C322.94 88.8671 327.678 89.1931 330.4 92.3161C333.255 95.5921 337.376 97.4711 341.707 97.4711C346.038 97.4711 350.159 95.5921 353.014 92.3161C355.735 89.1941 360.473 88.8691 363.596 91.5891C366.719 94.3111 367.044 99.0481 364.323 102.171C358.617 108.717 350.375 112.471 341.706 112.471Z" fill="#4E5660"/>
<path d="M261.539 371.18L150.921 260.56C132.378 242.016 132.378 211.951 150.922 193.408C169.465 174.864 199.531 174.864 218.074 193.408L328.692 304.028C347.235 322.572 347.235 352.637 328.691 371.18C310.153 389.72 280.087 389.728 261.539 371.18Z" fill="#6E768F"/>
<path d="M245.028 287.551C292.903 239.677 292.903 162.057 245.028 114.183C197.154 66.3089 119.535 66.3089 71.6607 114.183C23.7865 162.057 23.7865 239.677 71.6607 287.551C119.535 335.425 197.154 335.425 245.028 287.551Z" fill="#D1C4E9"/>
<path d="M158.383 323.479C191.288 323.479 221.163 310.515 243.185 289.418C75.5209 259.387 83.6909 126.567 107.294 89.3879C65.0889 108.761 35.7749 151.39 35.7749 200.87C35.7749 268.585 90.6689 323.479 158.383 323.479Z" fill="#B0ADE2"/>
<path d="M215.911 258.433C247.703 226.64 247.703 175.094 215.911 143.301C184.118 111.508 132.571 111.508 100.778 143.301C68.9856 175.094 68.9856 226.64 100.778 258.433C132.571 290.226 184.118 290.226 215.911 258.433Z" fill="#8DAEE1"/>
<path d="M158.383 282.294C203.352 282.294 239.806 245.839 239.806 200.871C239.806 184.505 234.96 169.279 226.649 156.515L114.027 269.137C126.791 277.448 142.017 282.294 158.383 282.294Z" fill="#6A95D6"/>
<path d="M417.311 221.11C415.996 220.665 414.67 220.328 413.344 220.085C404.517 225.016 395.003 229.067 384.951 232.089C383.597 234.11 382.48 236.338 381.664 238.753C373.623 262.556 358.601 274.688 317.371 290.678C302.889 296.294 295.702 312.587 301.318 327.069C306.917 341.506 323.187 348.755 337.709 343.122C377.344 327.751 417.502 308.422 434.956 256.757C439.926 242.042 432.027 226.082 417.311 221.11Z" fill="#F7DFB7"/>
<path d="M364.108 331.899C360.086 316.818 347.363 290.98 337.539 282.167C331.618 284.938 324.939 287.743 317.371 290.679C302.889 296.295 295.702 312.588 301.318 327.07C306.917 341.507 323.187 348.756 337.709 343.123C346.569 339.686 355.454 336.048 364.108 331.899Z" fill="#CB9D82"/>
<path d="M281.705 12.494C311.048 15.047 320.325 36.583 341.707 36.583C363.088 36.583 372.366 15.047 401.709 12.494C383.643 4.503 363.27 0 341.706 0C320.143 0 299.769 4.503 281.705 12.494Z" fill="#6E768F"/>
</g>
<defs>
<clipPath id="clip0_529_2996">
<rect width="512" height="512" fill="white"/>
</clipPath>
</defs>
</svg>
