<svg width="250" height="250" viewBox="0 0 250 250" fill="none" xmlns="http://www.w3.org/2000/svg">
<rect width="250" height="250" rx="32" fill="white"/>
<rect width="250" height="250" rx="32" fill="url(#paint0_linear_154_571)"/>
<path d="M101.702 226.852C115.194 226.852 126.132 215.932 126.132 202.463C126.132 188.993 115.194 178.073 101.702 178.073C88.2092 178.073 77.2715 188.993 77.2715 202.463C77.2715 215.932 88.2092 226.852 101.702 226.852Z" fill="white"/>
<path d="M146.065 71.7786C159.557 71.7786 170.495 60.8591 170.495 47.3893C170.495 33.9195 159.557 23 146.065 23C132.573 23 121.635 33.9195 121.635 47.3893C121.635 60.8591 132.573 71.7786 146.065 71.7786Z" fill="white"/>
<path d="M208.662 105.421C205.723 100.121 201.657 95.5278 196.749 91.9642C192.079 88.7036 186.71 86.5764 181.071 85.7521C174.671 84.9203 168.171 85.3345 161.929 86.9716C154.244 89.0078 146.881 92.1081 140.057 96.1821C136.004 98.5206 131.952 101.117 127.87 104.03C123.789 106.942 119.837 109.768 115.986 112.638L104.92 120.844C101.846 123.138 98.6458 125.26 95.3352 127.2C89.9613 130.823 83.6125 132.734 77.1276 132.68C74.9333 132.607 72.7938 131.977 70.9107 130.85C69.0276 129.723 67.4629 128.136 66.364 126.238C65.1686 124.113 64.5355 121.718 64.5245 119.28C64.575 116.154 65.4739 113.099 67.1256 110.443C69.5509 106.524 72.5437 102.985 76.0066 99.9409C81.2675 95.3836 86.9947 91.3923 93.0934 88.0332C98.1143 85.1349 103.301 82.5337 108.628 80.243C113.414 78.1627 118.141 76.3981 122.869 74.8343C119.245 71.7684 116.263 68.0176 114.096 63.7976C111.928 59.5776 110.617 54.9716 110.238 50.2441C106.156 51.6788 102.118 53.3574 98.1519 55.122C91.9344 57.8561 85.8705 60.926 79.9873 64.3182C72.7365 68.4232 65.8517 73.1414 59.4085 78.421C54.2641 82.7038 49.5824 87.5122 45.4402 92.7676C42.065 97.0935 39.3216 101.876 37.292 106.971C35.5433 111.341 34.4724 115.951 34.1161 120.643C33.7863 124.903 34.1601 129.187 35.2226 133.326C36.2589 137.306 37.8198 141.132 39.8644 144.702C42.9659 150.22 47.4152 154.864 52.798 158.203C57.7608 161.266 63.3596 163.155 69.1662 163.726C75.2583 164.327 81.4091 163.841 87.3307 162.291C93.6736 160.645 99.7609 158.14 105.423 154.846C109.161 152.665 112.77 150.27 116.23 147.672C119.938 144.932 123.66 142.12 127.425 139.193C131.19 136.267 135.113 133.34 138.663 130.585C142.212 127.947 145.906 125.509 149.728 123.283C155.826 119.167 163.005 116.941 170.365 116.884C172.914 117.004 175.389 117.78 177.55 119.137C179.716 120.497 181.498 122.389 182.723 124.632C184.426 127.457 185.261 130.719 185.123 134.014C184.838 137.921 183.481 141.673 181.2 144.86C178.152 149.389 174.441 153.437 170.192 156.868C164.226 161.792 157.829 166.171 151.079 169.952C144.965 173.491 138.612 176.602 132.067 179.263L129.868 180.124C130.975 181.518 131.979 182.99 132.871 184.529C136.792 191.273 138.387 199.115 137.413 206.852C145.973 203.433 154.272 199.395 162.245 194.772C172.496 189.044 182.062 182.171 190.757 174.285C197.958 167.838 204.03 160.235 208.72 151.79C212.668 144.602 214.822 136.571 215 128.376C215.01 120.292 212.819 112.358 208.662 105.421Z" fill="white"/>
<defs>
<linearGradient id="paint0_linear_154_571" x1="250" y1="250" x2="-1.59952" y2="1.62025" gradientUnits="userSpaceOnUse">
<stop stop-color="#0B97A0"/>
<stop offset="1" stop-color="#AEDEA6"/>
</linearGradient>
</defs>
</svg>
