<svg width="24" height="24" viewBox="0 0 24 24" fill="none" xmlns="http://www.w3.org/2000/svg">
<circle cx="12.7476" cy="2.61816" r="2.25" fill="#0D0D0D"/>
<path d="M13.4999 13.5002C14.798 14.25 16.5001 16.956 18.0001 22.5H16.5001C14.5889 17.2957 12.0021 14.9701 9.91165 13.8988C10.3347 11.1173 10.6082 10.5156 10.4999 9.00011C9.00006 9 7.50006 10.5001 5.62489 14.25L5.61623 14.2413C5.35938 13.9846 4.68727 13.3127 4.87489 12.75C5.62499 10.5 6.75006 6 13.5001 6L13.4999 10.5002V13.5002Z" fill="#0D0D0D"/>
<path d="M11.9759 16.7989C11.9759 16.1989 10.4865 15.1268 9.75481 14.7871C9.75481 17.6614 8.76187 18.7064 6 22.4999H7.5C9.54577 20.5094 11.2259 19.0489 11.9759 16.7989Z" fill="#0D0D0D"/>
<path d="M19.448 13.3468C17.198 11.8468 15.0441 8.25 14.5441 7.5C14.2113 8.27189 14.098 10.1122 14.5441 11.25C14.763 11.8086 16.8726 13.5946 18.698 14.0968L19.448 13.3468Z" fill="#0D0D0D"/>
</svg>
