<svg width="24" height="24" viewBox="0 0 24 24" fill="none" xmlns="http://www.w3.org/2000/svg">
<path fill-rule="evenodd" clip-rule="evenodd" d="M7 2C5.34315 2 4 3.34315 4 5V5.38197L2.55279 6.10557C2.214 6.27496 2 6.62123 2 7V11C2 11.5523 2.44772 12 3 12C3.55228 12 4 11.5523 4 11V22H7V20H18V22H21V11C21 11.5523 21.4477 12 22 12C22.5523 12 23 11.5523 23 11V7C23 6.62123 22.786 6.27496 22.4472 6.10557L21 5.38197V5C21 3.34315 19.6569 2 18 2H7ZM8 4C6.89543 4 6 4.89543 6 6V10C6 10 6 11 12.5 11C19 11 19 10 19 10V6C19 4.89543 18.1046 4 17 4H8ZM6 15C6 14.4477 6.44772 14 7 14H10C10.5523 14 11 14.4477 11 15C11 15.5523 10.5523 16 10 16H7C6.44772 16 6 15.5523 6 15ZM15 14C14.4477 14 14 14.4477 14 15C14 15.5523 14.4477 16 15 16H18C18.5523 16 19 15.5523 19 15C19 14.4477 18.5523 14 18 14H15Z" fill="black"/>
</svg>
