<svg width="16" height="16" viewBox="0 0 16 16" fill="none" xmlns="http://www.w3.org/2000/svg">
<path d="M8.0265 11.0015C8.12499 10.9982 8.22169 10.9758 8.3105 10.936C8.39931 10.8961 8.47831 10.8394 8.54254 10.7696L12.8284 6.10036C12.8895 6.03376 12.9358 5.95662 12.9649 5.87329C12.9939 5.78996 13.0051 5.70214 12.9978 5.61477C12.9905 5.5274 12.9648 5.4422 12.9223 5.36409C12.8797 5.28599 12.8211 5.2165 12.7497 5.15955C12.6784 5.10261 12.5957 5.05934 12.5065 5.03222C12.4172 5.0051 12.3231 4.99462 12.2295 5.00146C12.1359 5.0083 12.0447 5.03229 11.9611 5.07205C11.8774 5.1118 11.803 5.1666 11.742 5.23322L8 9.31394L4.25803 5.23322C4.19704 5.1666 4.1226 5.1118 4.03895 5.07205C3.95529 5.03229 3.86407 5.0083 3.77049 5.00146C3.67691 4.99462 3.5828 5.0051 3.49354 5.03222C3.40428 5.05934 3.32162 5.10261 3.25027 5.15955C3.17892 5.2165 3.12029 5.28599 3.07772 5.36409C3.03515 5.4422 3.00948 5.5274 3.00217 5.61477C2.99486 5.70214 3.00606 5.78996 3.03512 5.87329C3.06418 5.95662 3.11054 6.03376 3.17156 6.10036L7.45746 10.7696C7.5275 10.8458 7.61506 10.9062 7.71358 10.9463C7.81211 10.9865 7.91908 11.0053 8.0265 11.0015V11.0015Z" fill="white"/>
</svg>