<svg width="32" height="32" viewBox="0 0 32 32" fill="none" xmlns="http://www.w3.org/2000/svg">
<path d="M13.3337 23.9998C15.795 23.9998 18.0577 23.1532 19.863 21.7492L25.7243 27.6105L27.6097 25.7252L21.7483 19.8638C23.1537 18.0572 24.0003 15.7945 24.0003 13.3332C24.0003 7.45184 19.215 2.6665 13.3337 2.6665C7.45233 2.6665 2.66699 7.45184 2.66699 13.3332C2.66699 19.2145 7.45233 23.9998 13.3337 23.9998ZM13.3337 5.33317C17.7457 5.33317 21.3337 8.92117 21.3337 13.3332C21.3337 17.7452 17.7457 21.3332 13.3337 21.3332C8.92166 21.3332 5.33366 17.7452 5.33366 13.3332C5.33366 8.92117 8.92166 5.33317 13.3337 5.33317Z" fill="white"/>
</svg>
