<svg width="16" height="16" viewBox="0 0 16 16" fill="none" xmlns="http://www.w3.org/2000/svg">
<path d="M11.0015 7.97448C10.9982 7.87598 10.9758 7.77929 10.936 7.69048C10.8961 7.60167 10.8394 7.52266 10.7696 7.45844L6.10036 3.17253C6.03376 3.11152 5.95662 3.06516 5.87329 3.0361C5.78996 3.00703 5.70214 2.99584 5.61477 3.00315C5.5274 3.01046 5.4422 3.03613 5.36409 3.0787C5.28599 3.12127 5.2165 3.1799 5.15955 3.25125C5.10261 3.32259 5.05934 3.40526 5.03222 3.49452C5.0051 3.58378 4.99462 3.67789 5.00146 3.77147C5.0083 3.86505 5.03229 3.95627 5.07205 4.03992C5.1118 4.12358 5.1666 4.19802 5.23322 4.25901L9.31394 8.00098L5.23322 11.7429C5.1666 11.8039 5.11181 11.8784 5.07205 11.962C5.03229 12.0457 5.0083 12.1369 5.00146 12.2305C4.99462 12.3241 5.0051 12.4182 5.03222 12.5074C5.05934 12.5967 5.10261 12.6794 5.15956 12.7507C5.2165 12.8221 5.28599 12.8807 5.36409 12.9233C5.4422 12.9658 5.5274 12.9915 5.61477 12.9988C5.70214 13.0061 5.78996 12.9949 5.87329 12.9659C5.95662 12.9368 6.03376 12.8904 6.10036 12.8294L10.7696 8.54352C10.8458 8.47347 10.9062 8.38592 10.9463 8.28739C10.9865 8.18886 11.0053 8.0819 11.0015 7.97448Z" fill="white"/>
</svg>
