<svg width="24" height="24" viewBox="0 0 24 24" fill="none" xmlns="http://www.w3.org/2000/svg">
<path opacity="0.5" fill-rule="evenodd" clip-rule="evenodd" d="M16.0228 7.47273C14.9864 6.48182 13.6682 5.97728 12.2 5.97728C9.59548 5.97728 7.39093 7.73637 6.60457 10.1L6.60456 10.1C6.40456 10.7 6.29093 11.3409 6.29093 12C6.29093 12.6591 6.40456 13.3 6.60456 13.9H6.60457C7.39093 16.2636 9.59548 18.0227 12.2 18.0227C13.5455 18.0227 14.6909 17.6682 15.5864 17.0682L15.5864 17.0682C16.6455 16.3591 17.35 15.3 17.5819 14.05H12.2V10.1818H21.6182C21.7364 10.8364 21.8 11.5182 21.8 12.2273C21.8 15.2727 20.7091 17.8364 18.8182 19.5773H18.8182C17.1637 21.1046 14.9 22 12.2 22C8.29093 22 4.90911 19.7591 3.26366 16.4909L3.26365 16.4909C2.58638 15.1409 2.20001 13.6136 2.20001 12C2.20001 10.3864 2.58638 8.8591 3.26365 7.50909H3.26366C4.90911 4.24091 8.29093 2 12.2 2C14.8955 2 17.1591 2.99091 18.8909 4.60455L16.0228 7.47273Z" fill="#002433"/>
</svg>
