<svg width="24" height="24" viewBox="0 0 24 24" fill="none" xmlns="http://www.w3.org/2000/svg">
<path d="M16.1542 19.8417L15.8748 20.984C15.0364 21.3149 14.3668 21.5668 13.8681 21.7399C13.3689 21.9136 12.7888 22 12.128 22C11.113 22 10.3236 21.7514 9.76062 21.2576C9.1976 20.7618 8.916 20.1335 8.916 19.3713C8.916 19.0763 8.93643 18.7728 8.97891 18.4636C9.02175 18.154 9.08987 17.8054 9.18308 17.4157L10.2308 13.7074C10.324 13.3523 10.4032 13.0159 10.4667 12.6977C10.531 12.3815 10.562 12.0906 10.562 11.8287C10.562 11.3552 10.464 11.0239 10.2688 10.8377C10.0736 10.652 9.70111 10.5577 9.14812 10.5577C8.87728 10.5577 8.59891 10.6011 8.31516 10.6849C8.03015 10.7692 7.78655 10.8506 7.58203 10.9262L7.8622 9.78297C8.54854 9.50352 9.20459 9.26422 9.83214 9.06561C10.4597 8.86647 11.0526 8.76681 11.6135 8.76681C12.6214 8.76681 13.3992 9.01041 13.9453 9.4976C14.4915 9.98516 14.7645 10.6172 14.7645 11.396C14.7645 11.5572 14.7466 11.8411 14.7081 12.2469C14.6704 12.6536 14.6003 13.0263 14.4982 13.3652L13.4549 17.0587C13.3694 17.3553 13.2925 17.6945 13.2257 18.0761C13.1567 18.4552 13.1237 18.7448 13.1237 18.9392C13.1237 19.4296 13.233 19.7644 13.4522 19.9424C13.6731 20.1204 14.0534 20.209 14.5937 20.209C14.8473 20.209 15.1359 20.164 15.4566 20.0756C15.7764 19.9872 16.0096 19.9096 16.1542 19.8417ZM16.4188 4.33561C16.4188 4.97911 16.1763 5.52868 15.6889 5.98057C15.2028 6.43407 14.617 6.661 13.9317 6.661C13.2443 6.661 12.6571 6.43407 12.1654 5.98057C11.6746 5.52851 11.4287 4.97911 11.4287 4.33561C11.4287 3.69336 11.6746 3.14289 12.1654 2.68527C12.6562 2.22836 13.2445 2 13.9317 2C14.6168 2 15.2028 2.2289 15.6889 2.68527C16.1766 3.14289 16.4188 3.69354 16.4188 4.33561Z" fill="#5C6670"/>
</svg>
