<svg width="32" height="32" viewBox="0 0 32 32" fill="none" xmlns="http://www.w3.org/2000/svg">
<path d="M22 12.334V10.1984C22 7.24924 21.3778 3.33398 16 3.33398C10.6222 3.33398 10 7.24924 10 10.1984V12.334" stroke="url(#paint0_linear_3237_45461)" stroke-width="2"/>
<path fill-rule="evenodd" clip-rule="evenodd" d="M4.12464 13.0395C3 14.6073 3 16.3495 3 19.834C3 23.3184 3 25.0606 4.12464 26.6284C4.4118 27.0288 4.91009 27.5488 5.29779 27.8528C6.81615 29.0433 8.35802 29.1092 11.4418 29.241C12.7884 29.2985 14.3056 29.334 16 29.334C17.6944 29.334 19.2116 29.2985 20.5582 29.241C23.642 29.1092 25.1839 29.0433 26.7022 27.8528C27.0899 27.5488 27.5882 27.0288 27.8754 26.6284C29 25.0606 29 23.3184 29 19.834C29 16.3495 29 14.6073 27.8754 13.0395C27.5882 12.6392 27.0899 12.1192 26.7022 11.8152C25.1839 10.6246 23.642 10.5587 20.5582 10.427C19.2116 10.3694 17.6944 10.334 16 10.334C14.3056 10.334 12.7884 10.3694 11.4418 10.427C8.35802 10.5587 6.81615 10.6246 5.29779 11.8152C4.91009 12.1192 4.4118 12.6392 4.12464 13.0395ZM16 16.334C14.8954 16.334 14 17.2294 14 18.334V21.334C14 22.4386 14.8954 23.334 16 23.334C17.1046 23.334 18 22.4386 18 21.334V18.334C18 17.2294 17.1046 16.334 16 16.334Z" fill="url(#paint1_linear_3237_45461)"/>
<defs>
<linearGradient id="paint0_linear_3237_45461" x1="22" y1="12.334" x2="13.2733" y2="0.847223" gradientUnits="userSpaceOnUse">
<stop stop-color="#0B97A0"/>
<stop offset="1" stop-color="#AEDEA6"/>
</linearGradient>
<linearGradient id="paint1_linear_3237_45461" x1="29" y1="29.334" x2="10.7104" y2="4.62641" gradientUnits="userSpaceOnUse">
<stop stop-color="#0B97A0"/>
<stop offset="1" stop-color="#AEDEA6"/>
</linearGradient>
</defs>
</svg>
