<svg width="32" height="32" viewBox="0 0 32 32" fill="none" xmlns="http://www.w3.org/2000/svg">
<path d="M22 12.3337V10.1981C22 7.24899 21.3778 3.33374 16 3.33374C10.6222 3.33374 10 7.24899 10 10.1981V12.3337" stroke="#9FA5AA" stroke-width="2"/>
<path fill-rule="evenodd" clip-rule="evenodd" d="M4.12464 13.0393C3 14.6071 3 16.3493 3 19.8337C3 23.3182 3 25.0604 4.12464 26.6282C4.4118 27.0285 4.91009 27.5486 5.29779 27.8526C6.81615 29.0431 8.35802 29.109 11.4418 29.2408C12.7884 29.2983 14.3056 29.3337 16 29.3337C17.6944 29.3337 19.2116 29.2983 20.5582 29.2408C23.642 29.109 25.1839 29.0431 26.7022 27.8526C27.0899 27.5486 27.5882 27.0285 27.8754 26.6282C29 25.0604 29 23.3182 29 19.8337C29 16.3493 29 14.6071 27.8754 13.0393C27.5882 12.639 27.0899 12.1189 26.7022 11.8149C25.1839 10.6244 23.642 10.5585 20.5582 10.4267C19.2116 10.3692 17.6944 10.3337 16 10.3337C14.3056 10.3337 12.7884 10.3692 11.4418 10.4267C8.35802 10.5585 6.81615 10.6244 5.29779 11.8149C4.91009 12.1189 4.4118 12.639 4.12464 13.0393ZM16 16.3337C14.8954 16.3337 14 17.2292 14 18.3337V21.3337C14 22.4383 14.8954 23.3337 16 23.3337C17.1046 23.3337 18 22.4383 18 21.3337V18.3337C18 17.2292 17.1046 16.3337 16 16.3337Z" fill="#9FA5AA"/>
</svg>
