<svg width="32" height="32" viewBox="0 0 32 32" fill="none" xmlns="http://www.w3.org/2000/svg">
<mask id="path-1-inside-1_3237_45256" fill="white">
<path fill-rule="evenodd" clip-rule="evenodd" d="M19.334 6.66699H12.6673C10.1118 6.66699 8.37378 6.67037 7.05867 6.82821C5.78905 6.98059 5.18117 7.25179 4.76283 7.60281C4.58445 7.75249 4.41949 7.91746 4.26981 8.09584C3.91878 8.51417 3.64758 9.12206 3.4952 10.3917C3.33736 11.7068 3.33398 13.4448 3.33398 16.0003C3.33398 18.5559 3.33736 20.2939 3.4952 21.609C3.64758 22.8786 3.91878 23.4865 4.26981 23.9048C4.41949 24.0832 4.58445 24.2482 4.76283 24.3978C5.18117 24.7489 5.78905 25.0201 7.05867 25.1724C8.37378 25.3303 10.1118 25.3337 12.6673 25.3337H19.334C21.8895 25.3337 23.6275 25.3303 24.9426 25.1724C26.2122 25.0201 26.8201 24.7489 27.2385 24.3978C27.4168 24.2482 27.5818 24.0832 27.7315 23.9048C28.0825 23.4865 28.3537 22.8786 28.5061 21.609C28.6639 20.2939 28.6673 18.5559 28.6673 16.0003C28.6673 13.4448 28.6639 11.7068 28.5061 10.3917C28.3537 9.12206 28.0825 8.51417 27.7315 8.09584C27.5818 7.91746 27.4168 7.75249 27.2385 7.60281C26.8201 7.25179 26.2122 6.98059 24.9426 6.82821C23.6275 6.67037 21.8895 6.66699 19.334 6.66699ZM2.73772 6.81027C1.33398 8.48317 1.33398 10.9889 1.33398 16.0003C1.33398 21.0118 1.33398 23.5175 2.73772 25.1904C2.96224 25.458 3.20969 25.7054 3.47726 25.9299C5.15016 27.3337 7.65588 27.3337 12.6673 27.3337H19.334C24.3454 27.3337 26.8511 27.3337 28.524 25.9299C28.7916 25.7054 29.0391 25.458 29.2636 25.1904C30.6673 23.5175 30.6673 21.0118 30.6673 16.0003C30.6673 10.9889 30.6673 8.48317 29.2636 6.81027C29.0391 6.5427 28.7916 6.29524 28.524 6.07073C26.8511 4.66699 24.3454 4.66699 19.334 4.66699H12.6673C7.65588 4.66699 5.15016 4.66699 3.47726 6.07073C3.20969 6.29524 2.96224 6.5427 2.73772 6.81027Z"/>
</mask>
<path fill-rule="evenodd" clip-rule="evenodd" d="M19.334 6.66699H12.6673C10.1118 6.66699 8.37378 6.67037 7.05867 6.82821C5.78905 6.98059 5.18117 7.25179 4.76283 7.60281C4.58445 7.75249 4.41949 7.91746 4.26981 8.09584C3.91878 8.51417 3.64758 9.12206 3.4952 10.3917C3.33736 11.7068 3.33398 13.4448 3.33398 16.0003C3.33398 18.5559 3.33736 20.2939 3.4952 21.609C3.64758 22.8786 3.91878 23.4865 4.26981 23.9048C4.41949 24.0832 4.58445 24.2482 4.76283 24.3978C5.18117 24.7489 5.78905 25.0201 7.05867 25.1724C8.37378 25.3303 10.1118 25.3337 12.6673 25.3337H19.334C21.8895 25.3337 23.6275 25.3303 24.9426 25.1724C26.2122 25.0201 26.8201 24.7489 27.2385 24.3978C27.4168 24.2482 27.5818 24.0832 27.7315 23.9048C28.0825 23.4865 28.3537 22.8786 28.5061 21.609C28.6639 20.2939 28.6673 18.5559 28.6673 16.0003C28.6673 13.4448 28.6639 11.7068 28.5061 10.3917C28.3537 9.12206 28.0825 8.51417 27.7315 8.09584C27.5818 7.91746 27.4168 7.75249 27.2385 7.60281C26.8201 7.25179 26.2122 6.98059 24.9426 6.82821C23.6275 6.67037 21.8895 6.66699 19.334 6.66699ZM2.73772 6.81027C1.33398 8.48317 1.33398 10.9889 1.33398 16.0003C1.33398 21.0118 1.33398 23.5175 2.73772 25.1904C2.96224 25.458 3.20969 25.7054 3.47726 25.9299C5.15016 27.3337 7.65588 27.3337 12.6673 27.3337H19.334C24.3454 27.3337 26.8511 27.3337 28.524 25.9299C28.7916 25.7054 29.0391 25.458 29.2636 25.1904C30.6673 23.5175 30.6673 21.0118 30.6673 16.0003C30.6673 10.9889 30.6673 8.48317 29.2636 6.81027C29.0391 6.5427 28.7916 6.29524 28.524 6.07073C26.8511 4.66699 24.3454 4.66699 19.334 4.66699H12.6673C7.65588 4.66699 5.15016 4.66699 3.47726 6.07073C3.20969 6.29524 2.96224 6.5427 2.73772 6.81027Z" fill="url(#paint0_linear_3237_45256)"/>
<path d="M7.05867 6.82821L6.82034 4.84246V4.84246L7.05867 6.82821ZM4.76283 7.60281L3.47726 6.07073L3.47726 6.07073L4.76283 7.60281ZM4.26981 8.09584L2.73772 6.81026L2.73772 6.81027L4.26981 8.09584ZM3.4952 10.3917L1.50945 10.1533H1.50945L3.4952 10.3917ZM3.4952 21.609L5.48095 21.3706L3.4952 21.609ZM4.26981 23.9048L2.73772 25.1904H2.73772L4.26981 23.9048ZM4.76283 24.3978L6.04841 22.8657H6.0484L4.76283 24.3978ZM7.05867 25.1724L7.297 23.1867H7.297L7.05867 25.1724ZM24.9426 25.1724L24.7043 23.1867L24.9426 25.1724ZM27.2385 24.3978L25.9529 22.8657L25.9529 22.8657L27.2385 24.3978ZM27.7315 23.9048L26.1994 22.6192L26.1994 22.6192L27.7315 23.9048ZM28.5061 21.609L30.4919 21.8473V21.8473L28.5061 21.609ZM28.5061 10.3917L30.4919 10.1533V10.1533L28.5061 10.3917ZM27.7315 8.09584L26.1994 9.38141L26.1994 9.38142L27.7315 8.09584ZM27.2385 7.60281L28.524 6.07073L28.524 6.07073L27.2385 7.60281ZM24.9426 6.82821L25.181 4.84246V4.84246L24.9426 6.82821ZM2.73772 6.81027L1.20563 5.52469L1.20563 5.52469L2.73772 6.81027ZM2.73772 25.1904L1.20563 26.476L1.20563 26.476L2.73772 25.1904ZM3.47726 25.9299L2.19168 27.462L2.19168 27.462L3.47726 25.9299ZM28.524 25.9299L29.8096 27.462L29.8096 27.462L28.524 25.9299ZM29.2636 25.1904L30.7957 26.476L30.7957 26.476L29.2636 25.1904ZM29.2636 6.81027L30.7957 5.52469L30.7957 5.52469L29.2636 6.81027ZM28.524 6.07073L29.8096 4.53864L29.8096 4.53864L28.524 6.07073ZM3.47726 6.07073L2.19168 4.53864L2.19168 4.53864L3.47726 6.07073ZM12.6673 8.66699H19.334V4.66699H12.6673V8.66699ZM7.297 8.81396C8.46494 8.67378 10.0606 8.66699 12.6673 8.66699V4.66699C10.1629 4.66699 8.28262 4.66696 6.82034 4.84246L7.297 8.81396ZM6.04841 9.1349C6.04899 9.13441 6.22048 8.94316 7.297 8.81396L6.82034 4.84246C5.35763 5.01801 4.31334 5.36917 3.47726 6.07073L6.04841 9.1349ZM5.8019 9.38142C5.87673 9.29223 5.95922 9.20974 6.04841 9.1349L3.47726 6.07073C3.20969 6.29524 2.96224 6.5427 2.73772 6.81026L5.8019 9.38142ZM5.48095 10.63C5.61015 9.55349 5.8014 9.382 5.8019 9.38142L2.73772 6.81027C2.03616 7.64635 1.68501 8.69064 1.50945 10.1533L5.48095 10.63ZM5.33398 16.0003C5.33398 13.3936 5.34077 11.7979 5.48095 10.63L1.50945 10.1533C1.33395 11.6156 1.33398 13.4959 1.33398 16.0003H5.33398ZM5.48095 21.3706C5.34077 20.2027 5.33398 18.607 5.33398 16.0003H1.33398C1.33398 18.5047 1.33395 20.385 1.50945 21.8473L5.48095 21.3706ZM5.80189 22.6192C5.8014 22.6186 5.61015 22.4472 5.48095 21.3706L1.50945 21.8473C1.68501 23.31 2.03616 24.3543 2.73772 25.1904L5.80189 22.6192ZM6.0484 22.8657C5.95922 22.7909 5.87674 22.7084 5.80189 22.6192L2.73772 25.1904C2.96223 25.4579 3.20968 25.7054 3.47726 25.9299L6.0484 22.8657ZM7.297 23.1867C6.22048 23.0575 6.04899 22.8662 6.04841 22.8657L3.47726 25.9299C4.31334 26.6315 5.35763 26.9826 6.82034 27.1582L7.297 23.1867ZM12.6673 23.3337C10.0606 23.3337 8.46494 23.3269 7.297 23.1867L6.82034 27.1582C8.28262 27.3337 10.1629 27.3337 12.6673 27.3337V23.3337ZM19.334 23.3337H12.6673V27.3337H19.334V23.3337ZM24.7043 23.1867C23.5364 23.3269 21.9407 23.3337 19.334 23.3337V27.3337C21.8384 27.3337 23.7187 27.3337 25.181 27.1582L24.7043 23.1867ZM25.9529 22.8657C25.9523 22.8662 25.7808 23.0575 24.7043 23.1867L25.181 27.1582C26.6437 26.9826 27.688 26.6315 28.524 25.9299L25.9529 22.8657ZM26.1994 22.6192C26.1246 22.7084 26.0421 22.7909 25.9529 22.8657L28.524 25.9299C28.7916 25.7054 29.0391 25.4579 29.2636 25.1904L26.1994 22.6192ZM26.5204 21.3706C26.3911 22.4472 26.1999 22.6186 26.1994 22.6192L29.2636 25.1904C29.9651 24.3543 30.3163 23.31 30.4919 21.8473L26.5204 21.3706ZM26.6673 16.0003C26.6673 18.607 26.6605 20.2027 26.5204 21.3706L30.4919 21.8473C30.6674 20.385 30.6673 18.5047 30.6673 16.0003H26.6673ZM26.5204 10.63C26.6605 11.7979 26.6673 13.3936 26.6673 16.0003H30.6673C30.6673 13.4959 30.6674 11.6156 30.4919 10.1533L26.5204 10.63ZM26.1994 9.38142C26.1999 9.382 26.3911 9.55349 26.5204 10.63L30.4919 10.1533C30.3163 8.69063 29.9651 7.64635 29.2636 6.81026L26.1994 9.38142ZM25.9529 9.1349C26.0421 9.20974 26.1246 9.29223 26.1994 9.38141L29.2636 6.81027C29.0391 6.5427 28.7916 6.29524 28.524 6.07073L25.9529 9.1349ZM24.7043 8.81396C25.7808 8.94316 25.9523 9.13441 25.9529 9.1349L28.524 6.07073C27.688 5.36917 26.6437 5.01801 25.181 4.84246L24.7043 8.81396ZM19.334 8.66699C21.9407 8.66699 23.5364 8.67378 24.7043 8.81396L25.181 4.84246C23.7187 4.66696 21.8384 4.66699 19.334 4.66699V8.66699ZM3.33398 16.0003C3.33398 13.4448 3.33736 11.7068 3.4952 10.3917C3.64758 9.12206 3.91878 8.51417 4.26981 8.09584L1.20563 5.52469C0.15292 6.77926 -0.277744 8.26068 -0.476298 9.91501C-0.669391 11.5239 -0.666016 13.5444 -0.666016 16.0003H3.33398ZM4.26981 23.9048C3.91878 23.4865 3.64758 22.8786 3.4952 21.609C3.33736 20.2939 3.33398 18.5559 3.33398 16.0003H-0.666016C-0.666016 18.4562 -0.669391 20.4768 -0.476298 22.0856C-0.277744 23.74 0.15292 25.2214 1.20563 26.476L4.26981 23.9048ZM4.76284 24.3978C4.58446 24.2482 4.41949 24.0832 4.26981 23.9048L1.20563 26.476C1.50499 26.8327 1.83492 27.1627 2.19168 27.462L4.76284 24.3978ZM12.6673 25.3337C10.1118 25.3337 8.37378 25.3303 7.05867 25.1724C5.78905 25.0201 5.18117 24.7489 4.76283 24.3978L2.19168 27.462C3.44625 28.5147 4.92768 28.9454 6.58201 29.1439C8.19085 29.337 10.2114 29.3337 12.6673 29.3337V25.3337ZM19.334 25.3337H12.6673V29.3337H19.334V25.3337ZM27.2385 24.3978C26.8201 24.7489 26.2122 25.0201 24.9426 25.1724C23.6275 25.3303 21.8895 25.3337 19.334 25.3337V29.3337C21.7899 29.3337 23.8105 29.337 25.4193 29.1439C27.0736 28.9454 28.555 28.5147 29.8096 27.462L27.2385 24.3978ZM27.7315 23.9048C27.5818 24.0832 27.4168 24.2482 27.2385 24.3978L29.8096 27.462C30.1664 27.1627 30.4963 26.8327 30.7957 26.476L27.7315 23.9048ZM28.6673 16.0003C28.6673 18.5559 28.6639 20.2939 28.5061 21.609C28.3537 22.8786 28.0825 23.4865 27.7315 23.9048L30.7957 26.476C31.8484 25.2214 32.279 23.74 32.4776 22.0856C32.6707 20.4768 32.6673 18.4562 32.6673 16.0003H28.6673ZM27.7315 8.09584C28.0825 8.51417 28.3537 9.12206 28.5061 10.3917C28.6639 11.7068 28.6673 13.4448 28.6673 16.0003H32.6673C32.6673 13.5444 32.6707 11.5239 32.4776 9.91501C32.279 8.26068 31.8484 6.77926 30.7957 5.52469L27.7315 8.09584ZM27.2385 7.60281C27.4168 7.75249 27.5818 7.91746 27.7315 8.09584L30.7957 5.52469C30.4963 5.16793 30.1664 4.838 29.8096 4.53864L27.2385 7.60281ZM19.334 6.66699C21.8895 6.66699 23.6275 6.67037 24.9426 6.82821C26.2122 6.98059 26.8201 7.25179 27.2385 7.60282L29.8096 4.53864C28.555 3.48593 27.0736 3.05526 25.4193 2.85671C23.8105 2.66362 21.7899 2.66699 19.334 2.66699V6.66699ZM12.6673 6.66699H19.334V2.66699H12.6673V6.66699ZM4.76283 7.60281C5.18117 7.25179 5.78905 6.98059 7.05867 6.82821C8.37378 6.67037 10.1118 6.66699 12.6673 6.66699V2.66699C10.2114 2.66699 8.19084 2.66362 6.58201 2.85671C4.92768 3.05526 3.44625 3.48593 2.19168 4.53864L4.76283 7.60281ZM4.26981 8.09584C4.41949 7.91746 4.58445 7.75249 4.76283 7.60281L2.19168 4.53864C1.83492 4.83799 1.50499 5.16793 1.20563 5.52469L4.26981 8.09584Z" fill="url(#paint1_linear_3237_45256)" mask="url(#path-1-inside-1_3237_45256)"/>
<rect x="2.66699" y="9.33301" width="26.6667" height="4.66667" fill="url(#paint2_linear_3237_45256)"/>
<path d="M21.3337 21.0975C20.845 21.6512 20.1301 22.0003 19.3337 22.0003C17.8609 22.0003 16.667 20.8064 16.667 19.3337C16.667 17.8609 17.8609 16.667 19.3337 16.667C20.1301 16.667 20.845 17.0162 21.3337 17.5698C21.8223 17.0162 22.5372 16.667 23.3337 16.667C24.8064 16.667 26.0003 17.8609 26.0003 19.3337C26.0003 20.8064 24.8064 22.0003 23.3337 22.0003C22.5372 22.0003 21.8223 21.6512 21.3337 21.0975Z" fill="url(#paint3_linear_3237_45256)"/>
<defs>
<linearGradient id="paint0_linear_3237_45256" x1="30.6673" y1="27.3337" x2="8.52144" y2="-0.95895" gradientUnits="userSpaceOnUse">
<stop stop-color="#0B97A0"/>
<stop offset="1" stop-color="#AEDEA6"/>
</linearGradient>
<linearGradient id="paint1_linear_3237_45256" x1="30.6673" y1="27.3337" x2="8.52144" y2="-0.95895" gradientUnits="userSpaceOnUse">
<stop stop-color="#0B97A0"/>
<stop offset="1" stop-color="#AEDEA6"/>
</linearGradient>
<linearGradient id="paint2_linear_3237_45256" x1="29.3337" y1="13.9997" x2="27.7192" y2="4.89205" gradientUnits="userSpaceOnUse">
<stop stop-color="#0B97A0"/>
<stop offset="1" stop-color="#AEDEA6"/>
</linearGradient>
<linearGradient id="paint3_linear_3237_45256" x1="26.0003" y1="22.0003" x2="21.3456" y2="13.9588" gradientUnits="userSpaceOnUse">
<stop stop-color="#0B97A0"/>
<stop offset="1" stop-color="#AEDEA6"/>
</linearGradient>
</defs>
</svg>
