<svg width="32" height="32" viewBox="0 0 32 32" fill="none" xmlns="http://www.w3.org/2000/svg">
<mask id="path-1-inside-1_3237_45076" fill="white">
<path fill-rule="evenodd" clip-rule="evenodd" d="M19.334 6.66663H12.6673C10.1118 6.66663 8.37378 6.67 7.05867 6.82784C5.78905 6.98022 5.18117 7.25143 4.76283 7.60245C4.58445 7.75213 4.41949 7.9171 4.26981 8.09547C3.91878 8.51381 3.64758 9.1217 3.4952 10.3913C3.33736 11.7064 3.33398 13.4444 3.33398 16C3.33398 18.5555 3.33736 20.2935 3.4952 21.6086C3.64758 22.8782 3.91878 23.4861 4.26981 23.9044C4.41949 24.0828 4.58445 24.2478 4.76283 24.3975C5.18117 24.7485 5.78905 25.0197 7.05867 25.1721C8.37378 25.3299 10.1118 25.3333 12.6673 25.3333H19.334C21.8895 25.3333 23.6275 25.3299 24.9426 25.1721C26.2122 25.0197 26.8201 24.7485 27.2385 24.3975C27.4168 24.2478 27.5818 24.0828 27.7315 23.9044C28.0825 23.4861 28.3537 22.8782 28.5061 21.6086C28.6639 20.2935 28.6673 18.5555 28.6673 16C28.6673 13.4444 28.6639 11.7064 28.5061 10.3913C28.3537 9.1217 28.0825 8.51381 27.7315 8.09547C27.5818 7.9171 27.4168 7.75213 27.2385 7.60245C26.8201 7.25143 26.2122 6.98022 24.9426 6.82784C23.6275 6.67 21.8895 6.66663 19.334 6.66663ZM2.73772 6.8099C1.33398 8.4828 1.33398 10.9885 1.33398 16C1.33398 21.0114 1.33398 23.5171 2.73772 25.19C2.96224 25.4576 3.20969 25.705 3.47726 25.9296C5.15016 27.3333 7.65588 27.3333 12.6673 27.3333H19.334C24.3454 27.3333 26.8511 27.3333 28.524 25.9296C28.7916 25.705 29.0391 25.4576 29.2636 25.19C30.6673 23.5171 30.6673 21.0114 30.6673 16C30.6673 10.9885 30.6673 8.4828 29.2636 6.8099C29.0391 6.54233 28.7916 6.29488 28.524 6.07036C26.8511 4.66663 24.3454 4.66663 19.334 4.66663H12.6673C7.65588 4.66663 5.15016 4.66663 3.47726 6.07036C3.20969 6.29488 2.96224 6.54233 2.73772 6.8099Z"/>
</mask>
<path fill-rule="evenodd" clip-rule="evenodd" d="M19.334 6.66663H12.6673C10.1118 6.66663 8.37378 6.67 7.05867 6.82784C5.78905 6.98022 5.18117 7.25143 4.76283 7.60245C4.58445 7.75213 4.41949 7.9171 4.26981 8.09547C3.91878 8.51381 3.64758 9.1217 3.4952 10.3913C3.33736 11.7064 3.33398 13.4444 3.33398 16C3.33398 18.5555 3.33736 20.2935 3.4952 21.6086C3.64758 22.8782 3.91878 23.4861 4.26981 23.9044C4.41949 24.0828 4.58445 24.2478 4.76283 24.3975C5.18117 24.7485 5.78905 25.0197 7.05867 25.1721C8.37378 25.3299 10.1118 25.3333 12.6673 25.3333H19.334C21.8895 25.3333 23.6275 25.3299 24.9426 25.1721C26.2122 25.0197 26.8201 24.7485 27.2385 24.3975C27.4168 24.2478 27.5818 24.0828 27.7315 23.9044C28.0825 23.4861 28.3537 22.8782 28.5061 21.6086C28.6639 20.2935 28.6673 18.5555 28.6673 16C28.6673 13.4444 28.6639 11.7064 28.5061 10.3913C28.3537 9.1217 28.0825 8.51381 27.7315 8.09547C27.5818 7.9171 27.4168 7.75213 27.2385 7.60245C26.8201 7.25143 26.2122 6.98022 24.9426 6.82784C23.6275 6.67 21.8895 6.66663 19.334 6.66663ZM2.73772 6.8099C1.33398 8.4828 1.33398 10.9885 1.33398 16C1.33398 21.0114 1.33398 23.5171 2.73772 25.19C2.96224 25.4576 3.20969 25.705 3.47726 25.9296C5.15016 27.3333 7.65588 27.3333 12.6673 27.3333H19.334C24.3454 27.3333 26.8511 27.3333 28.524 25.9296C28.7916 25.705 29.0391 25.4576 29.2636 25.19C30.6673 23.5171 30.6673 21.0114 30.6673 16C30.6673 10.9885 30.6673 8.4828 29.2636 6.8099C29.0391 6.54233 28.7916 6.29488 28.524 6.07036C26.8511 4.66663 24.3454 4.66663 19.334 4.66663H12.6673C7.65588 4.66663 5.15016 4.66663 3.47726 6.07036C3.20969 6.29488 2.96224 6.54233 2.73772 6.8099Z" fill="#9FA5AA"/>
<path d="M7.05867 6.82784L6.82034 4.84209V4.84209L7.05867 6.82784ZM4.76283 7.60245L3.47726 6.07036L3.47726 6.07036L4.76283 7.60245ZM4.26981 8.09547L2.73772 6.8099L2.73772 6.8099L4.26981 8.09547ZM3.4952 10.3913L1.50945 10.153H1.50945L3.4952 10.3913ZM3.4952 21.6086L5.48095 21.3703L3.4952 21.6086ZM4.26981 23.9044L2.73772 25.19H2.73772L4.26981 23.9044ZM4.76283 24.3975L6.04841 22.8654H6.0484L4.76283 24.3975ZM7.05867 25.1721L7.297 23.1863H7.297L7.05867 25.1721ZM24.9426 25.1721L24.7043 23.1863L24.9426 25.1721ZM27.2385 24.3975L25.9529 22.8654L25.9529 22.8654L27.2385 24.3975ZM27.7315 23.9044L26.1994 22.6189L26.1994 22.6189L27.7315 23.9044ZM28.5061 21.6086L30.4919 21.8469V21.8469L28.5061 21.6086ZM28.5061 10.3913L30.4919 10.153V10.153L28.5061 10.3913ZM27.7315 8.09547L26.1994 9.38105L26.1994 9.38105L27.7315 8.09547ZM27.2385 7.60245L28.524 6.07036L28.524 6.07036L27.2385 7.60245ZM24.9426 6.82784L25.181 4.84209V4.84209L24.9426 6.82784ZM2.73772 6.8099L1.20563 5.52432L1.20563 5.52432L2.73772 6.8099ZM2.73772 25.19L1.20563 26.4756L1.20563 26.4756L2.73772 25.19ZM3.47726 25.9296L2.19168 27.4616L2.19168 27.4616L3.47726 25.9296ZM28.524 25.9296L29.8096 27.4616L29.8096 27.4616L28.524 25.9296ZM29.2636 25.19L30.7957 26.4756L30.7957 26.4756L29.2636 25.19ZM29.2636 6.8099L30.7957 5.52432L30.7957 5.52432L29.2636 6.8099ZM28.524 6.07036L29.8096 4.53827L29.8096 4.53827L28.524 6.07036ZM3.47726 6.07036L2.19168 4.53827L2.19168 4.53827L3.47726 6.07036ZM12.6673 8.66663H19.334V4.66663H12.6673V8.66663ZM7.297 8.81359C8.46494 8.67341 10.0606 8.66663 12.6673 8.66663V4.66663C10.1629 4.66663 8.28262 4.66659 6.82034 4.84209L7.297 8.81359ZM6.04841 9.13454C6.04899 9.13405 6.22048 8.94279 7.297 8.81359L6.82034 4.84209C5.35763 5.01765 4.31334 5.3688 3.47726 6.07036L6.04841 9.13454ZM5.8019 9.38105C5.87673 9.29186 5.95922 9.20938 6.04841 9.13454L3.47726 6.07036C3.20969 6.29488 2.96224 6.54233 2.73772 6.8099L5.8019 9.38105ZM5.48095 10.6296C5.61015 9.55312 5.8014 9.38164 5.8019 9.38105L2.73772 6.8099C2.03616 7.64598 1.68501 8.69027 1.50945 10.153L5.48095 10.6296ZM5.33398 16C5.33398 13.3933 5.34077 11.7976 5.48095 10.6296L1.50945 10.153C1.33395 11.6153 1.33398 13.4956 1.33398 16H5.33398ZM5.48095 21.3703C5.34077 20.2023 5.33398 18.6066 5.33398 16H1.33398C1.33398 18.5043 1.33395 20.3847 1.50945 21.8469L5.48095 21.3703ZM5.80189 22.6189C5.8014 22.6183 5.61015 22.4468 5.48095 21.3703L1.50945 21.8469C1.68501 23.3096 2.03616 24.3539 2.73772 25.19L5.80189 22.6189ZM6.0484 22.8654C5.95922 22.7905 5.87674 22.7081 5.80189 22.6189L2.73772 25.19C2.96223 25.4576 3.20968 25.705 3.47726 25.9296L6.0484 22.8654ZM7.297 23.1863C6.22048 23.0571 6.04899 22.8659 6.04841 22.8654L3.47726 25.9296C4.31334 26.6311 5.35763 26.9823 6.82034 27.1578L7.297 23.1863ZM12.6673 23.3333C10.0606 23.3333 8.46494 23.3265 7.297 23.1863L6.82034 27.1578C8.28262 27.3333 10.1629 27.3333 12.6673 27.3333V23.3333ZM19.334 23.3333H12.6673V27.3333H19.334V23.3333ZM24.7043 23.1863C23.5364 23.3265 21.9407 23.3333 19.334 23.3333V27.3333C21.8384 27.3333 23.7187 27.3333 25.181 27.1578L24.7043 23.1863ZM25.9529 22.8654C25.9523 22.8659 25.7808 23.0571 24.7043 23.1863L25.181 27.1578C26.6437 26.9823 27.688 26.6311 28.524 25.9296L25.9529 22.8654ZM26.1994 22.6189C26.1246 22.7081 26.0421 22.7905 25.9529 22.8654L28.524 25.9296C28.7916 25.705 29.0391 25.4576 29.2636 25.19L26.1994 22.6189ZM26.5204 21.3703C26.3911 22.4468 26.1999 22.6183 26.1994 22.6189L29.2636 25.19C29.9651 24.3539 30.3163 23.3096 30.4919 21.8469L26.5204 21.3703ZM26.6673 16C26.6673 18.6066 26.6605 20.2023 26.5204 21.3703L30.4919 21.8469C30.6674 20.3847 30.6673 18.5043 30.6673 16H26.6673ZM26.5204 10.6296C26.6605 11.7976 26.6673 13.3933 26.6673 16H30.6673C30.6673 13.4956 30.6674 11.6153 30.4919 10.153L26.5204 10.6296ZM26.1994 9.38105C26.1999 9.38164 26.3911 9.55312 26.5204 10.6296L30.4919 10.153C30.3163 8.69027 29.9651 7.64598 29.2636 6.8099L26.1994 9.38105ZM25.9529 9.13454C26.0421 9.20938 26.1246 9.29186 26.1994 9.38105L29.2636 6.8099C29.0391 6.54233 28.7916 6.29488 28.524 6.07036L25.9529 9.13454ZM24.7043 8.81359C25.7808 8.94279 25.9523 9.13405 25.9529 9.13454L28.524 6.07036C27.688 5.3688 26.6437 5.01765 25.181 4.84209L24.7043 8.81359ZM19.334 8.66663C21.9407 8.66663 23.5364 8.67341 24.7043 8.81359L25.181 4.84209C23.7187 4.66659 21.8384 4.66663 19.334 4.66663V8.66663ZM3.33398 16C3.33398 13.4444 3.33736 11.7064 3.4952 10.3913C3.64758 9.1217 3.91878 8.51381 4.26981 8.09547L1.20563 5.52432C0.15292 6.77889 -0.277744 8.26032 -0.476298 9.91465C-0.669391 11.5235 -0.666016 13.5441 -0.666016 16H3.33398ZM4.26981 23.9044C3.91878 23.4861 3.64758 22.8782 3.4952 21.6086C3.33736 20.2935 3.33398 18.5555 3.33398 16H-0.666016C-0.666016 18.4559 -0.669391 20.4764 -0.476298 22.0853C-0.277744 23.7396 0.15292 25.221 1.20563 26.4756L4.26981 23.9044ZM4.76284 24.3975C4.58446 24.2478 4.41949 24.0828 4.26981 23.9044L1.20563 26.4756C1.50499 26.8323 1.83492 27.1623 2.19168 27.4616L4.76284 24.3975ZM12.6673 25.3333C10.1118 25.3333 8.37378 25.3299 7.05867 25.1721C5.78905 25.0197 5.18117 24.7485 4.76283 24.3975L2.19168 27.4616C3.44625 28.5144 4.92768 28.945 6.58201 29.1436C8.19085 29.3367 10.2114 29.3333 12.6673 29.3333V25.3333ZM19.334 25.3333H12.6673V29.3333H19.334V25.3333ZM27.2385 24.3975C26.8201 24.7485 26.2122 25.0197 24.9426 25.1721C23.6275 25.3299 21.8895 25.3333 19.334 25.3333V29.3333C21.7899 29.3333 23.8105 29.3367 25.4193 29.1436C27.0736 28.945 28.555 28.5144 29.8096 27.4616L27.2385 24.3975ZM27.7315 23.9044C27.5818 24.0828 27.4168 24.2478 27.2385 24.3975L29.8096 27.4616C30.1664 27.1623 30.4963 26.8323 30.7957 26.4756L27.7315 23.9044ZM28.6673 16C28.6673 18.5555 28.6639 20.2935 28.5061 21.6086C28.3537 22.8782 28.0825 23.4861 27.7315 23.9044L30.7957 26.4756C31.8484 25.221 32.279 23.7396 32.4776 22.0853C32.6707 20.4764 32.6673 18.4559 32.6673 16H28.6673ZM27.7315 8.09547C28.0825 8.51381 28.3537 9.1217 28.5061 10.3913C28.6639 11.7064 28.6673 13.4444 28.6673 16H32.6673C32.6673 13.5441 32.6707 11.5235 32.4776 9.91465C32.279 8.26032 31.8484 6.77889 30.7957 5.52432L27.7315 8.09547ZM27.2385 7.60245C27.4168 7.75212 27.5818 7.91709 27.7315 8.09548L30.7957 5.52432C30.4963 5.16757 30.1664 4.83763 29.8096 4.53827L27.2385 7.60245ZM19.334 6.66663C21.8895 6.66663 23.6275 6.67 24.9426 6.82784C26.2122 6.98022 26.8201 7.25143 27.2385 7.60245L29.8096 4.53827C28.555 3.48556 27.0736 3.0549 25.4193 2.85634C23.8105 2.66325 21.7899 2.66663 19.334 2.66663V6.66663ZM12.6673 6.66663H19.334V2.66663H12.6673V6.66663ZM4.76283 7.60245C5.18117 7.25142 5.78905 6.98022 7.05867 6.82784C8.37378 6.67 10.1118 6.66663 12.6673 6.66663V2.66663C10.2114 2.66663 8.19084 2.66325 6.58201 2.85634C4.92768 3.0549 3.44625 3.48556 2.19168 4.53827L4.76283 7.60245ZM4.26981 8.09547C4.41949 7.9171 4.58445 7.75213 4.76283 7.60245L2.19168 4.53827C1.83492 4.83763 1.50499 5.16756 1.20563 5.52432L4.26981 8.09547Z" fill="#9FA5AA" mask="url(#path-1-inside-1_3237_45076)"/>
<rect x="2.66699" y="9.33337" width="26.6667" height="4.66667" fill="#9FA5AA"/>
<path d="M21.3337 21.0972C20.845 21.6508 20.1301 22 19.3337 22C17.8609 22 16.667 20.8061 16.667 19.3333C16.667 17.8605 17.8609 16.6666 19.3337 16.6666C20.1301 16.6666 20.845 17.0158 21.3337 17.5694C21.8223 17.0158 22.5372 16.6666 23.3337 16.6666C24.8064 16.6666 26.0003 17.8605 26.0003 19.3333C26.0003 20.8061 24.8064 22 23.3337 22C22.5372 22 21.8223 21.6508 21.3337 21.0972Z" fill="#9FA5AA"/>
</svg>
