<svg width="32" height="32" viewBox="0 0 32 32" fill="none" xmlns="http://www.w3.org/2000/svg">
<mask id="path-1-inside-1_3237_45060" fill="white">
<path d="M17.7426 25.4089C17.7426 27.471 16.0709 29.1426 14.0088 29.1426C11.9467 29.1426 10.2751 27.471 10.2751 25.4089C10.2751 23.3468 11.9467 21.6751 14.0088 21.6751C16.0709 21.6751 17.7426 23.3468 17.7426 25.4089Z"/>
<path d="M9.92457 16.5412C9.08535 17.3543 8.23472 17.4624 7.51904 17.2408C6.75145 17.0032 6.02237 16.3449 5.62504 15.4247C5.2365 14.5248 5.18454 13.4131 5.72516 12.2967C6.26842 11.1749 7.4635 9.94442 9.75674 8.95305L8.91022 6.99486C6.28118 8.13139 4.62756 9.66854 3.80511 11.3669C2.98002 13.0707 3.04535 14.8318 3.66649 16.2704C4.27884 17.6885 5.45184 18.8341 6.88813 19.2787C8.37633 19.7394 10.0314 19.4082 11.4091 18.0733C15.5295 14.081 18.8855 12.7451 21.285 12.7389C23.6265 12.7328 25.2308 13.9877 26.0084 15.6712C26.8023 17.3899 26.7261 19.5466 25.6135 21.2624C24.5255 22.9401 22.3433 24.3422 18.6355 24.3422V26.4756C22.9205 26.4756 25.849 24.8202 27.4034 22.4231C28.9333 20.0638 29.0313 17.1281 27.9451 14.7766C26.8427 12.39 24.5127 10.5972 21.2795 10.6056C18.1044 10.6138 14.2454 12.3547 9.92457 16.5412Z"/>
<path d="M16.0002 5.93125C16.0002 7.62888 14.624 9.00509 12.9264 9.00509C11.2287 9.00509 9.85255 7.62888 9.85255 5.93125C9.85255 4.23362 11.2287 2.85742 12.9264 2.85742C14.624 2.85742 16.0002 4.23362 16.0002 5.93125Z"/>
</mask>
<path d="M17.7426 25.4089C17.7426 27.471 16.0709 29.1426 14.0088 29.1426C11.9467 29.1426 10.2751 27.471 10.2751 25.4089C10.2751 23.3468 11.9467 21.6751 14.0088 21.6751C16.0709 21.6751 17.7426 23.3468 17.7426 25.4089Z" fill="url(#paint0_linear_3237_45060)"/>
<path d="M9.92457 16.5412C9.08535 17.3543 8.23472 17.4624 7.51904 17.2408C6.75145 17.0032 6.02237 16.3449 5.62504 15.4247C5.2365 14.5248 5.18454 13.4131 5.72516 12.2967C6.26842 11.1749 7.4635 9.94442 9.75674 8.95305L8.91022 6.99486C6.28118 8.13139 4.62756 9.66854 3.80511 11.3669C2.98002 13.0707 3.04535 14.8318 3.66649 16.2704C4.27884 17.6885 5.45184 18.8341 6.88813 19.2787C8.37633 19.7394 10.0314 19.4082 11.4091 18.0733C15.5295 14.081 18.8855 12.7451 21.285 12.7389C23.6265 12.7328 25.2308 13.9877 26.0084 15.6712C26.8023 17.3899 26.7261 19.5466 25.6135 21.2624C24.5255 22.9401 22.3433 24.3422 18.6355 24.3422V26.4756C22.9205 26.4756 25.849 24.8202 27.4034 22.4231C28.9333 20.0638 29.0313 17.1281 27.9451 14.7766C26.8427 12.39 24.5127 10.5972 21.2795 10.6056C18.1044 10.6138 14.2454 12.3547 9.92457 16.5412Z" fill="url(#paint1_linear_3237_45060)"/>
<path d="M16.0002 5.93125C16.0002 7.62888 14.624 9.00509 12.9264 9.00509C11.2287 9.00509 9.85255 7.62888 9.85255 5.93125C9.85255 4.23362 11.2287 2.85742 12.9264 2.85742C14.624 2.85742 16.0002 4.23362 16.0002 5.93125Z" fill="url(#paint2_linear_3237_45060)"/>
<path d="M9.92457 16.5412L8.99676 15.5836L9.92457 16.5412ZM7.51904 17.2408L7.91336 15.9671H7.91336L7.51904 17.2408ZM21.2795 10.6056L21.283 11.9389L21.2795 10.6056ZM27.9451 14.7766L26.7347 15.3357V15.3357L27.9451 14.7766ZM27.4034 22.4231L26.2847 21.6976L27.4034 22.4231ZM18.6355 26.4756H17.3022V27.8089H18.6355V26.4756ZM18.6355 24.3422V23.0089H17.3022V24.3422H18.6355ZM25.6135 21.2624L24.4948 20.5369V20.5369L25.6135 21.2624ZM26.0084 15.6712L27.2189 15.1121V15.1121L26.0084 15.6712ZM21.285 12.7389L21.2816 11.4056L21.285 12.7389ZM11.4091 18.0733L10.4813 17.1158H10.4813L11.4091 18.0733ZM6.88813 19.2787L7.28245 18.005H7.28245L6.88813 19.2787ZM3.66649 16.2704L2.44239 16.7989H2.44239L3.66649 16.2704ZM3.80511 11.3669L5.00514 11.948H5.00514L3.80511 11.3669ZM8.91022 6.99486L10.1341 6.46579L9.60502 5.24192L8.38115 5.77099L8.91022 6.99486ZM9.75674 8.95305L10.2858 10.1769L11.5097 9.64785L10.9806 8.42398L9.75674 8.95305ZM5.72516 12.2967L4.52513 11.7156L5.72516 12.2967ZM5.62504 15.4247L6.84914 14.8961L5.62504 15.4247ZM8.99676 15.5836C8.72076 15.8511 8.50102 15.9486 8.3545 15.9849C8.20851 16.0211 8.0652 16.0141 7.91336 15.9671L7.12472 18.5145C8.3223 18.8853 9.6759 18.6387 10.8524 17.4988L8.99676 15.5836ZM21.276 9.27223C17.616 9.28174 13.4426 11.276 8.99676 15.5836L10.8524 17.4988C15.0483 13.4333 18.5929 11.9459 21.283 11.9389L21.276 9.27223ZM29.1556 14.2175C27.8505 11.3922 25.0673 9.26238 21.276 9.27223L21.283 11.9389C23.9581 11.9319 25.8349 13.3879 26.7347 15.3357L29.1556 14.2175ZM28.5222 23.1485C30.313 20.3868 30.4243 16.9642 29.1556 14.2175L26.7347 15.3357C27.6383 17.292 27.5536 19.7408 26.2847 21.6976L28.5222 23.1485ZM18.6355 27.8089C23.2803 27.8089 26.6757 25.996 28.5222 23.1485L26.2847 21.6976C25.0223 23.6445 22.5608 25.1422 18.6355 25.1422V27.8089ZM17.3022 24.3422V26.4756H19.9689V24.3422H17.3022ZM24.4948 20.5369C23.6978 21.766 21.9813 23.0089 18.6355 23.0089V25.6756C22.7054 25.6756 25.3533 24.1143 26.7322 21.9878L24.4948 20.5369ZM24.798 16.2303C25.409 17.5531 25.3468 19.2231 24.4948 20.5369L26.7322 21.9878C28.1054 19.8702 28.1956 17.2267 27.2189 15.1121L24.798 16.2303ZM21.2885 14.0722C23.0737 14.0676 24.2238 14.9872 24.798 16.2303L27.2189 15.1121C26.2378 12.9882 24.1793 11.398 21.2816 11.4056L21.2885 14.0722ZM12.3369 19.0309C16.3318 15.1602 19.3733 14.0772 21.2885 14.0722L21.2816 11.4056C18.3976 11.4131 14.7273 13.0017 10.4813 17.1158L12.3369 19.0309ZM6.49382 20.5524C8.46533 21.1628 10.623 20.6915 12.3369 19.0309L10.4813 17.1158C9.43973 18.1249 8.28733 18.3161 7.28245 18.005L6.49382 20.5524ZM2.44239 16.7989C3.18883 18.5276 4.63894 19.9782 6.49382 20.5524L7.28245 18.005C6.26475 17.69 5.36885 16.8494 4.89058 15.7418L2.44239 16.7989ZM2.60508 10.7858C1.60207 12.857 1.676 15.024 2.44239 16.7989L4.89058 15.7418C4.4147 14.6397 4.35797 13.2845 5.00514 11.948L2.60508 10.7858ZM8.38115 5.77099C5.54264 6.99807 3.60217 8.72677 2.60508 10.7858L5.00514 11.948C5.65295 10.6103 7.01972 9.26471 9.4393 8.21873L8.38115 5.77099ZM10.9806 8.42398L10.1341 6.46579L7.68635 7.52394L8.53287 9.48213L10.9806 8.42398ZM6.92519 12.8778C7.29415 12.1159 8.20297 11.0773 10.2858 10.1769L9.22767 7.72918C6.72403 8.8115 5.24269 10.2338 4.52513 11.7156L6.92519 12.8778ZM6.84914 14.8961C6.60614 14.3333 6.56219 13.6274 6.92519 12.8778L4.52513 11.7156C3.8069 13.1987 3.86685 14.7163 4.40095 15.9532L6.84914 14.8961ZM7.91336 15.9671C7.5626 15.8585 7.11157 15.5039 6.84914 14.8961L4.40095 15.9532C4.93317 17.1858 5.94029 18.1478 7.12472 18.5145L7.91336 15.9671ZM14.6669 5.93125C14.6669 6.8925 13.8876 7.67175 12.9264 7.67175V10.3384C15.3604 10.3384 17.3335 8.36526 17.3335 5.93125H14.6669ZM12.9264 7.67175C11.9651 7.67175 11.1859 6.8925 11.1859 5.93125H8.51921C8.51921 8.36526 10.4924 10.3384 12.9264 10.3384V7.67175ZM11.1859 5.93125C11.1859 4.97 11.9651 4.19076 12.9264 4.19076V1.52409C10.4924 1.52409 8.51921 3.49724 8.51921 5.93125H11.1859ZM12.9264 4.19076C13.8876 4.19076 14.6669 4.97 14.6669 5.93125H17.3335C17.3335 3.49724 15.3604 1.52409 12.9264 1.52409V4.19076ZM16.4093 25.4089C16.4093 26.7346 15.3345 27.8093 14.0088 27.8093V30.476C16.8073 30.476 19.0759 28.2074 19.0759 25.4089H16.4093ZM14.0088 27.8093C12.6831 27.8093 11.6084 26.7346 11.6084 25.4089H8.94174C8.94174 28.2074 11.2104 30.476 14.0088 30.476V27.8093ZM11.6084 25.4089C11.6084 24.0832 12.6831 23.0085 14.0088 23.0085V20.3418C11.2104 20.3418 8.94174 22.6104 8.94174 25.4089H11.6084ZM14.0088 23.0085C15.3345 23.0085 16.4093 24.0832 16.4093 25.4089H19.0759C19.0759 22.6104 16.8073 20.3418 14.0088 20.3418V23.0085Z" fill="url(#paint3_linear_3237_45060)" mask="url(#path-1-inside-1_3237_45060)"/>
<defs>
<linearGradient id="paint0_linear_3237_45060" x1="28.67" y1="29.1426" x2="2.24016" y2="3.85336" gradientUnits="userSpaceOnUse">
<stop stop-color="#0B97A0"/>
<stop offset="1" stop-color="#AEDEA6"/>
</linearGradient>
<linearGradient id="paint1_linear_3237_45060" x1="28.67" y1="29.1426" x2="2.24016" y2="3.85336" gradientUnits="userSpaceOnUse">
<stop stop-color="#0B97A0"/>
<stop offset="1" stop-color="#AEDEA6"/>
</linearGradient>
<linearGradient id="paint2_linear_3237_45060" x1="28.67" y1="29.1426" x2="2.24016" y2="3.85336" gradientUnits="userSpaceOnUse">
<stop stop-color="#0B97A0"/>
<stop offset="1" stop-color="#AEDEA6"/>
</linearGradient>
<linearGradient id="paint3_linear_3237_45060" x1="28.67" y1="29.1426" x2="2.24016" y2="3.85336" gradientUnits="userSpaceOnUse">
<stop stop-color="#0B97A0"/>
<stop offset="1" stop-color="#AEDEA6"/>
</linearGradient>
</defs>
</svg>
