<svg width="32" height="32" viewBox="0 0 32 32" fill="none" xmlns="http://www.w3.org/2000/svg">
<mask id="path-1-inside-1_3237_44997" fill="white">
<path d="M17.7423 25.4089C17.7423 27.471 16.0707 29.1426 14.0086 29.1426C11.9465 29.1426 10.2748 27.471 10.2748 25.4089C10.2748 23.3468 11.9465 21.6751 14.0086 21.6751C16.0707 21.6751 17.7423 23.3468 17.7423 25.4089Z"/>
<path d="M9.92432 16.5412C9.08511 17.3543 8.23448 17.4624 7.5188 17.2408C6.7512 17.0032 6.02213 16.3449 5.6248 15.4247C5.23625 14.5248 5.1843 13.4131 5.72492 12.2967C6.26818 11.1749 7.46325 9.94442 9.7565 8.95305L8.90998 6.99486C6.28094 8.13139 4.62732 9.66854 3.80487 11.3669C2.97977 13.0707 3.04511 14.8318 3.66624 16.2704C4.27859 17.6885 5.4516 18.8341 6.88789 19.2787C8.37609 19.7394 10.0311 19.4082 11.4088 18.0733C15.5293 14.081 18.8852 12.7451 21.2848 12.7389C23.6263 12.7328 25.2305 13.9877 26.0082 15.6712C26.8021 17.3899 26.7258 19.5466 25.6133 21.2624C24.5253 22.9401 22.3431 24.3422 18.6353 24.3422V26.4756C22.9203 26.4756 25.8487 24.8202 27.4032 22.4231C28.9331 20.0638 29.0311 17.1281 27.9449 14.7766C26.8425 12.39 24.5124 10.5972 21.2793 10.6056C18.1042 10.6138 14.2452 12.3547 9.92432 16.5412Z"/>
<path d="M16 5.93125C16 7.62888 14.6238 9.00509 12.9261 9.00509C11.2285 9.00509 9.8523 7.62888 9.8523 5.93125C9.8523 4.23362 11.2285 2.85742 12.9261 2.85742C14.6238 2.85742 16 4.23362 16 5.93125Z"/>
</mask>
<path d="M17.7423 25.4089C17.7423 27.471 16.0707 29.1426 14.0086 29.1426C11.9465 29.1426 10.2748 27.471 10.2748 25.4089C10.2748 23.3468 11.9465 21.6751 14.0086 21.6751C16.0707 21.6751 17.7423 23.3468 17.7423 25.4089Z" fill="#9FA5AA"/>
<path d="M9.92432 16.5412C9.08511 17.3543 8.23448 17.4624 7.5188 17.2408C6.7512 17.0032 6.02213 16.3449 5.6248 15.4247C5.23625 14.5248 5.1843 13.4131 5.72492 12.2967C6.26818 11.1749 7.46325 9.94442 9.7565 8.95305L8.90998 6.99486C6.28094 8.13139 4.62732 9.66854 3.80487 11.3669C2.97977 13.0707 3.04511 14.8318 3.66624 16.2704C4.27859 17.6885 5.4516 18.8341 6.88789 19.2787C8.37609 19.7394 10.0311 19.4082 11.4088 18.0733C15.5293 14.081 18.8852 12.7451 21.2848 12.7389C23.6263 12.7328 25.2305 13.9877 26.0082 15.6712C26.8021 17.3899 26.7258 19.5466 25.6133 21.2624C24.5253 22.9401 22.3431 24.3422 18.6353 24.3422V26.4756C22.9203 26.4756 25.8487 24.8202 27.4032 22.4231C28.9331 20.0638 29.0311 17.1281 27.9449 14.7766C26.8425 12.39 24.5124 10.5972 21.2793 10.6056C18.1042 10.6138 14.2452 12.3547 9.92432 16.5412Z" fill="#9FA5AA"/>
<path d="M16 5.93125C16 7.62888 14.6238 9.00509 12.9261 9.00509C11.2285 9.00509 9.8523 7.62888 9.8523 5.93125C9.8523 4.23362 11.2285 2.85742 12.9261 2.85742C14.6238 2.85742 16 4.23362 16 5.93125Z" fill="#9FA5AA"/>
<path d="M9.92432 16.5412L8.99652 15.5836L9.92432 16.5412ZM7.5188 17.2408L7.91311 15.9671H7.91311L7.5188 17.2408ZM21.2793 10.6056L21.2827 11.9389L21.2793 10.6056ZM27.9449 14.7766L26.7344 15.3357V15.3357L27.9449 14.7766ZM27.4032 22.4231L26.2845 21.6976L27.4032 22.4231ZM18.6353 26.4756H17.3019V27.8089H18.6353V26.4756ZM18.6353 24.3422V23.0089H17.3019V24.3422H18.6353ZM25.6133 21.2624L24.4946 20.5369V20.5369L25.6133 21.2624ZM26.0082 15.6712L27.2186 15.1121V15.1121L26.0082 15.6712ZM21.2848 12.7389L21.2813 11.4056L21.2848 12.7389ZM11.4088 18.0733L10.481 17.1158H10.481L11.4088 18.0733ZM6.88789 19.2787L7.28221 18.005H7.2822L6.88789 19.2787ZM3.66624 16.2704L2.44215 16.7989H2.44215L3.66624 16.2704ZM3.80487 11.3669L5.0049 11.948H5.0049L3.80487 11.3669ZM8.90998 6.99486L10.1339 6.46579L9.60478 5.24192L8.38091 5.77099L8.90998 6.99486ZM9.7565 8.95305L10.2856 10.1769L11.5094 9.64785L10.9804 8.42398L9.7565 8.95305ZM5.72492 12.2967L4.52489 11.7156L5.72492 12.2967ZM5.6248 15.4247L6.84889 14.8961L5.6248 15.4247ZM8.99652 15.5836C8.72051 15.8511 8.50077 15.9486 8.35425 15.9849C8.20827 16.0211 8.06495 16.0141 7.91311 15.9671L7.12448 18.5145C8.32205 18.8853 9.67565 18.6387 10.8521 17.4988L8.99652 15.5836ZM21.2758 9.27223C17.6158 9.28174 13.4423 11.276 8.99652 15.5836L10.8521 17.4988C15.048 13.4333 18.5926 11.9459 21.2827 11.9389L21.2758 9.27223ZM29.1553 14.2175C27.8503 11.3922 25.067 9.26238 21.2758 9.27223L21.2827 11.9389C23.9578 11.9319 25.8347 13.3879 26.7344 15.3357L29.1553 14.2175ZM28.5219 23.1485C30.3128 20.3868 30.4241 16.9642 29.1553 14.2175L26.7344 15.3357C27.6381 17.292 27.5534 19.7408 26.2845 21.6976L28.5219 23.1485ZM18.6353 27.8089C23.2801 27.8089 26.6754 25.996 28.5219 23.1485L26.2845 21.6976C25.0221 23.6445 22.5605 25.1422 18.6353 25.1422V27.8089ZM17.3019 24.3422V26.4756H19.9686V24.3422H17.3019ZM24.4946 20.5369C23.6976 21.766 21.9811 23.0089 18.6353 23.0089V25.6756C22.7051 25.6756 25.353 24.1143 26.732 21.9878L24.4946 20.5369ZM24.7977 16.2303C25.4087 17.5531 25.3465 19.2231 24.4946 20.5369L26.732 21.9878C28.1051 19.8702 28.1954 17.2267 27.2186 15.1121L24.7977 16.2303ZM21.2883 14.0722C23.0735 14.0676 24.2235 14.9872 24.7977 16.2303L27.2186 15.1121C26.2375 12.9882 24.1791 11.398 21.2813 11.4056L21.2883 14.0722ZM12.3366 19.0309C16.3315 15.1602 19.3731 14.0772 21.2883 14.0722L21.2813 11.4056C18.3974 11.4131 14.727 13.0017 10.481 17.1158L12.3366 19.0309ZM6.49357 20.5524C8.46509 21.1628 10.6228 20.6915 12.3366 19.0309L10.481 17.1158C9.43949 18.1249 8.28709 18.3161 7.28221 18.005L6.49357 20.5524ZM2.44215 16.7989C3.18858 18.5276 4.63869 19.9782 6.49357 20.5524L7.2822 18.005C6.26451 17.69 5.36861 16.8494 4.89034 15.7418L2.44215 16.7989ZM2.60484 10.7858C1.60183 12.857 1.67576 15.024 2.44215 16.7989L4.89034 15.7418C4.41446 14.6397 4.35772 13.2845 5.0049 11.948L2.60484 10.7858ZM8.38091 5.77099C5.5424 6.99807 3.60193 8.72677 2.60484 10.7858L5.0049 11.948C5.6527 10.6103 7.01948 9.26471 9.43905 8.21873L8.38091 5.77099ZM10.9804 8.42398L10.1339 6.46579L7.68611 7.52394L8.53263 9.48213L10.9804 8.42398ZM6.92495 12.8778C7.29391 12.1159 8.20273 11.0773 10.2856 10.1769L9.22743 7.72918C6.72378 8.8115 5.24244 10.2338 4.52489 11.7156L6.92495 12.8778ZM6.84889 14.8961C6.60589 14.3333 6.56194 13.6274 6.92495 12.8778L4.52489 11.7156C3.80666 13.1987 3.86661 14.7163 4.4007 15.9532L6.84889 14.8961ZM7.91311 15.9671C7.56236 15.8585 7.11133 15.5039 6.84889 14.8961L4.4007 15.9532C4.93293 17.1858 5.94005 18.1478 7.12448 18.5145L7.91311 15.9671ZM14.6666 5.93125C14.6666 6.8925 13.8874 7.67175 12.9261 7.67175V10.3384C15.3601 10.3384 17.3333 8.36526 17.3333 5.93125H14.6666ZM12.9261 7.67175C11.9649 7.67175 11.1856 6.8925 11.1856 5.93125H8.51897C8.51897 8.36526 10.4921 10.3384 12.9261 10.3384V7.67175ZM11.1856 5.93125C11.1856 4.97 11.9649 4.19076 12.9261 4.19076V1.52409C10.4921 1.52409 8.51897 3.49724 8.51897 5.93125H11.1856ZM12.9261 4.19076C13.8874 4.19076 14.6666 4.97 14.6666 5.93125H17.3333C17.3333 3.49724 15.3601 1.52409 12.9261 1.52409V4.19076ZM16.409 25.4089C16.409 26.7346 15.3343 27.8093 14.0086 27.8093V30.476C16.8071 30.476 19.0757 28.2074 19.0757 25.4089H16.409ZM14.0086 27.8093C12.6829 27.8093 11.6082 26.7346 11.6082 25.4089H8.94149C8.94149 28.2074 11.2101 30.476 14.0086 30.476V27.8093ZM11.6082 25.4089C11.6082 24.0832 12.6829 23.0085 14.0086 23.0085V20.3418C11.2101 20.3418 8.94149 22.6104 8.94149 25.4089H11.6082ZM14.0086 23.0085C15.3343 23.0085 16.409 24.0832 16.409 25.4089H19.0757C19.0757 22.6104 16.8071 20.3418 14.0086 20.3418V23.0085Z" fill="#9FA5AA" mask="url(#path-1-inside-1_3237_44997)"/>
</svg>
