<svg width="512" height="512" viewBox="0 0 512 512" fill="none" xmlns="http://www.w3.org/2000/svg">
<g clip-path="url(#clip0_529_3402)">
<path d="M226.652 108.337H132.572C113.472 108.337 97.9898 123.82 97.9898 142.919V217.209H226.653V108.337H226.652Z" fill="#6A95D6"/>
<path d="M239.39 394.104H123.194C93.2973 394.104 69.0613 369.868 69.0613 339.971V227.017C69.0613 197.12 93.2973 172.884 123.194 172.884H239.391V394.104H239.39Z" fill="#8DAEE1"/>
<path d="M158.268 346.154H121.162C113.33 346.154 106.982 339.805 106.982 331.975V310.741C106.982 302.909 113.33 296.561 121.162 296.561H158.268C166.099 296.561 172.447 302.909 172.447 310.741V331.975C172.448 339.805 166.099 346.154 158.268 346.154Z" fill="#6A95D6"/>
<path d="M383.112 313.108C348.797 313.108 315.892 297.213 298.664 274.166C289.345 261.698 291.897 244.035 304.365 234.715C316.832 225.396 334.495 227.948 343.816 240.416C353.915 253.929 385.191 263.945 407.699 250.089C420.955 241.927 438.316 246.059 446.476 259.314C454.637 272.57 450.506 289.931 437.251 298.091C420.265 308.55 401.484 313.108 383.112 313.108Z" fill="#CB9D82"/>
<path d="M346.898 291.123C391.116 274.386 383.366 236.799 363.613 209.068H336.133V291.123H346.898Z" fill="#6A95D6"/>
<path d="M399.227 473.86C390.846 439.8 368.382 396.15 346.294 363.854C351.667 353.41 354.718 341.576 354.718 329.023V271.803C354.718 241.652 330.276 217.21 300.125 217.21H256.751C226.6 217.21 202.158 241.652 202.158 271.803V329.023C202.158 341.494 205.169 353.253 210.475 363.647C210.371 392.221 205.67 433.406 184.184 469.349C176.197 482.711 180.553 500.017 193.914 508.004C207.235 515.968 224.556 511.678 232.568 498.274C251.29 466.955 260.234 433.409 264.151 403.948C277.64 406.505 291.015 405.38 303.337 401.125C319.929 426.654 338.091 461.33 344.488 487.33C348.192 502.379 363.411 511.7 378.593 507.964C393.708 504.244 402.946 488.974 399.227 473.86Z" fill="#F6EE86"/>
<path d="M353.008 258.196C346.962 234.629 325.578 217.21 300.125 217.21H256.751C231.297 217.21 209.914 234.629 203.868 258.196C226.475 269.47 251.976 275.47 278.437 275.47C304.899 275.47 330.401 269.469 353.008 258.196Z" fill="#EFD176"/>
<path d="M263.557 217.21C269.369 265.871 250.667 313.108 202.158 313.108V217.21H263.557Z" fill="#6A95D6"/>
<path d="M399.227 473.86C390.846 439.8 368.382 396.15 346.294 363.854C351.667 353.41 354.718 341.576 354.718 329.023H202.158C202.158 341.494 205.169 353.253 210.475 363.647C210.371 392.221 205.67 433.406 184.184 469.349C176.197 482.711 180.553 500.017 193.914 508.004C207.235 515.968 224.556 511.678 232.568 498.274C251.29 466.955 260.234 433.409 264.151 403.948C277.64 406.505 291.015 405.38 303.337 401.125C319.929 426.654 338.091 461.329 344.488 487.33C348.192 502.379 363.41 511.7 378.593 507.964C393.708 504.244 402.946 488.974 399.227 473.86Z" fill="#E7889D"/>
<path d="M195.134 359.923C153.349 320.852 154.479 254.79 181.627 219.934C191.192 207.654 208.902 205.453 221.183 215.019C233.464 224.585 235.664 242.294 226.098 254.575C215.73 267.885 214.327 300.695 233.633 318.746C245.003 329.378 245.602 347.214 234.971 358.584C224.341 369.952 206.506 370.555 195.134 359.923Z" fill="#CB9D82"/>
<path d="M221.183 215.019C208.902 205.453 191.192 207.655 181.627 219.934C177.724 224.946 174.361 230.606 171.584 236.735C186.041 249.219 202.723 258.897 220.798 265.455C222.08 261.162 223.882 257.421 226.099 254.575C235.664 242.294 233.464 224.585 221.183 215.019Z" fill="#B7856B"/>
<path d="M278.437 244.565C347.038 244.565 402.649 195.29 402.649 134.506C402.649 73.7215 347.038 24.4462 278.437 24.4462C209.837 24.4462 154.225 73.7215 154.225 134.506C154.225 195.29 209.837 244.565 278.437 244.565Z" fill="#CB9D82"/>
<path d="M191.079 81.9303C219.516 81.9303 242.57 63.5896 242.57 40.9651C242.57 18.3407 219.516 0 191.079 0C162.642 0 139.589 18.3407 139.589 40.9651C139.589 63.5896 162.642 81.9303 191.079 81.9303Z" fill="#565E75"/>
<path d="M278.437 24.4472C219.192 24.4472 169.64 61.2031 157.227 110.382C197.401 110.319 249.645 85.7183 271.021 71.7562C275.528 68.812 281.347 68.812 285.854 71.7562C307.23 85.7183 359.473 110.319 399.647 110.382C387.235 61.2031 337.684 24.4472 278.437 24.4472Z" fill="#6E768F"/>
<path d="M119.377 249.201H69.0613C64.7943 249.201 61.3349 245.741 61.3349 241.474C61.3349 237.207 64.7943 233.748 69.0613 233.748H119.377C123.644 233.748 127.104 237.207 127.104 241.474C127.104 245.741 123.644 249.201 119.377 249.201Z" fill="#F6EE86"/>
<path d="M106.982 265.256C102.715 265.256 99.2559 261.797 99.2559 257.53V241.474C99.2559 237.207 102.715 233.748 106.982 233.748C111.249 233.748 114.709 237.207 114.709 241.474V257.53C114.709 261.797 111.249 265.256 106.982 265.256Z" fill="#6E768F"/>
<path d="M196.479 195.729C213.181 195.729 226.72 184.947 226.72 171.647C226.72 158.346 213.181 147.564 196.479 147.564C179.778 147.564 166.238 158.346 166.238 171.647C166.238 184.947 179.778 195.729 196.479 195.729Z" fill="#EDA1AB"/>
<path d="M360.395 195.729C377.097 195.729 390.636 184.947 390.636 171.647C390.636 158.346 377.097 147.564 360.395 147.564C343.694 147.564 330.154 158.346 330.154 171.647C330.154 184.947 343.694 195.729 360.395 195.729Z" fill="#EDA1AB"/>
<path d="M214.103 156.191C209.836 156.191 206.377 152.732 206.377 148.465V136.102C206.377 131.835 209.836 128.376 214.103 128.376C218.371 128.376 221.83 131.835 221.83 136.102V148.465C221.83 152.732 218.372 156.191 214.103 156.191Z" fill="#4E5660"/>
<path d="M342.771 156.191C338.504 156.191 335.045 152.732 335.045 148.465V136.102C335.045 131.835 338.504 128.376 342.771 128.376C347.038 128.376 350.497 131.835 350.497 136.102V148.465C350.497 152.732 347.038 156.191 342.771 156.191Z" fill="#4E5660"/>
<path d="M278.437 163.551C269.703 163.551 261.398 159.768 255.651 153.172C252.848 149.955 253.182 145.075 256.4 142.271C259.617 139.468 264.497 139.803 267.301 143.02C270.112 146.247 274.171 148.097 278.437 148.097C282.703 148.097 286.762 146.247 289.574 143.019C292.378 139.802 297.257 139.467 300.475 142.27C303.692 145.074 304.027 149.954 301.224 153.171C295.476 159.768 287.171 163.551 278.437 163.551Z" fill="#4E5660"/>
<path d="M344.488 487.329C348.192 502.378 363.411 511.699 378.593 507.963C393.707 504.243 402.946 488.973 399.226 473.859C397.018 464.888 393.827 455.249 389.93 445.331L338.109 467.565C340.779 474.483 342.969 481.152 344.488 487.329Z" fill="#6E768F"/>
<path d="M193.218 451.848C190.598 457.766 187.605 463.624 184.183 469.348C176.196 482.71 180.552 500.016 193.913 508.003C207.234 515.967 224.555 511.677 232.567 498.273C237.425 490.147 241.612 481.869 245.237 473.553L193.218 451.848Z" fill="#6E768F"/>
</g>
<defs>
<clipPath id="clip0_529_3402">
<rect width="512" height="512" fill="white"/>
</clipPath>
</defs>
</svg>
