<svg width="246" height="40" viewBox="0 0 246 40" fill="none" xmlns="http://www.w3.org/2000/svg">
<path d="M54.3654 15.1627H48.2727V12.2305H63.7956V15.1627H57.7051V28.7045H54.3654V15.1627Z" fill="#1D3A3C"/>
<path d="M67.1154 20.406C67.1005 19.2324 67.3333 18.0687 67.7987 16.9909C68.2464 15.977 68.9065 15.0707 69.7344 14.3331C70.6025 13.5671 71.6145 12.9814 72.7116 12.6102C75.2102 11.7966 77.9029 11.7966 80.4016 12.6102C81.5006 12.9799 82.5144 13.5657 83.3831 14.3331C84.2136 15.0689 84.8746 15.9756 85.321 16.9909C85.7883 18.0683 86.0227 19.232 86.0087 20.406C86.0224 21.5893 85.7882 22.7623 85.321 23.8496C84.8737 24.8752 84.2131 25.7939 83.3831 26.5448C82.5154 27.3214 81.5019 27.9182 80.4016 28.3007C77.9072 29.1405 75.206 29.1405 72.7116 28.3007C71.6132 27.9168 70.6015 27.3201 69.7344 26.5448C68.9056 25.7934 68.2458 24.8747 67.7987 23.8496C67.334 22.7616 67.1013 21.5889 67.1154 20.406ZM70.4617 20.406C70.4469 21.1957 70.602 21.9793 70.9165 22.704C71.2102 23.375 71.6465 23.9741 72.1952 24.4598C72.7609 24.9543 73.4187 25.3325 74.1309 25.5726C75.7 26.093 77.3955 26.093 78.9646 25.5726C79.6771 25.3331 80.335 24.9548 80.9003 24.4598C81.4441 23.9707 81.8784 23.3724 82.1747 22.704C82.4999 21.9818 82.6648 21.1979 82.6581 20.406C82.6648 19.6191 82.4998 18.8402 82.1747 18.1235C81.8778 17.4668 81.4432 16.8815 80.9003 16.4071C80.3315 15.9275 79.6738 15.5644 78.9646 15.3383C77.3904 14.8506 75.7052 14.8506 74.1309 15.3383C73.4216 15.5638 72.7637 15.9271 72.1952 16.4071C71.647 16.8776 71.2102 17.4638 70.9165 18.1235C70.602 18.8427 70.4469 19.6213 70.4617 20.406Z" fill="#1D3A3C"/>
<path d="M88.3486 12.2173H91.6927V21.2905C91.6825 21.9659 91.7865 22.6382 92.0003 23.279C92.1898 23.8255 92.5025 24.3211 92.9143 24.7276C93.3384 25.1426 93.8516 25.4556 94.4149 25.6428C95.7758 26.0554 97.2286 26.0554 98.5895 25.6428C99.1553 25.4553 99.6713 25.1424 100.099 24.7276C100.508 24.3194 100.82 23.8242 101.011 23.279C101.222 22.6377 101.325 21.9656 101.314 21.2905V12.2173H104.673V21.6922C104.688 22.7017 104.503 23.7042 104.129 24.642C103.773 25.5102 103.228 26.2885 102.533 26.9202C101.789 27.5747 100.918 28.0686 99.9737 28.3709C97.7228 29.0601 95.3168 29.0601 93.0659 28.3709C92.1224 28.0686 91.2517 27.5747 90.5084 26.9202C89.8128 26.29 89.2683 25.5113 88.9155 24.642C88.5327 23.7059 88.34 22.7033 88.3486 21.6922V12.2173Z" fill="#1D3A3C"/>
<path d="M108.725 12.2172H117.116C118.228 12.1971 119.337 12.3308 120.412 12.6145C121.251 12.833 122.037 13.2214 122.721 13.7558C123.32 14.2407 123.79 14.8666 124.087 15.5774C124.391 16.3457 124.54 17.166 124.527 17.9917C124.529 18.5789 124.455 19.1638 124.307 19.7322C124.161 20.272 123.931 20.7853 123.624 21.2532C123.31 21.7271 122.921 22.1461 122.47 22.4932C121.972 22.8725 121.422 23.1772 120.836 23.3974L124.421 28.6979H120.326L117.25 24.0076H112.089V28.6979H108.743L108.725 12.2172ZM117.199 21.1127C117.76 21.1223 118.319 21.0483 118.858 20.8932C119.293 20.764 119.699 20.5523 120.054 20.2699C120.369 20.0116 120.616 19.679 120.772 19.302C120.933 18.8939 121.013 18.4587 121.009 18.0202C121.032 17.614 120.956 17.2084 120.79 16.8372C120.622 16.4651 120.368 16.138 120.049 15.8825C119.403 15.3843 118.45 15.1319 117.193 15.1319H112.078V21.1127H117.199Z" fill="#1D3A3C"/>
<path d="M129.257 23.7904C129.851 24.124 130.458 24.4269 131.079 24.6991C131.708 24.9729 132.355 25.2024 133.017 25.386C133.699 25.5773 134.395 25.7196 135.097 25.8118C135.869 25.9152 136.648 25.9651 137.426 25.9611C138.275 25.9729 139.123 25.9075 139.96 25.7657C140.551 25.6724 141.125 25.4904 141.662 25.2258C142.054 25.0469 142.389 24.7646 142.631 24.4093C142.824 24.1027 142.924 23.7465 142.917 23.3844C142.924 23.1034 142.859 22.8254 142.728 22.5767C142.597 22.3285 142.403 22.1189 142.166 21.9687C141.465 21.5696 140.661 21.387 139.856 21.4442C139.371 21.446 138.886 21.4753 138.404 21.532C137.919 21.5956 137.389 21.6571 136.866 21.7295C136.343 21.8019 135.84 21.8656 135.328 21.9226C134.858 21.9818 134.385 22.0126 133.911 22.0148C133.192 22.0189 132.476 21.9229 131.784 21.7295C131.136 21.5546 130.524 21.2654 129.978 20.8757C129.459 20.5013 129.032 20.0144 128.728 19.4513C128.402 18.838 128.236 18.1527 128.244 17.4584C128.246 17.006 128.309 16.5558 128.429 16.1196C128.555 15.668 128.755 15.2402 129.02 14.8532C129.311 14.426 129.665 14.0456 130.07 13.7251C130.543 13.3525 131.066 13.0481 131.624 12.8209C132.305 12.5509 133.013 12.3516 133.735 12.2261C134.636 12.0751 135.548 12.0017 136.462 12.0066C137.206 12.0059 137.95 12.047 138.69 12.1295C140.122 12.283 141.536 12.577 142.91 13.0074C143.535 13.2054 144.148 13.4399 144.745 13.7098L143.293 16.4093C142.803 16.1949 142.302 16.0073 141.792 15.8475C141.242 15.6718 140.683 15.5252 140.118 15.4085C139.531 15.2834 138.931 15.1891 138.305 15.11C137.674 15.0354 137.038 14.998 136.402 14.9981C135.64 14.9837 134.877 15.0499 134.128 15.1956C133.632 15.2943 133.154 15.4675 132.709 15.7092C132.407 15.8705 132.154 16.111 131.977 16.405C131.845 16.6379 131.774 16.9008 131.771 17.1687C131.769 17.4098 131.83 17.6471 131.947 17.8579C132.063 18.0691 132.233 18.2462 132.439 18.3715C133.048 18.7346 133.754 18.9038 134.462 18.8565C134.883 18.8543 135.304 18.8279 135.721 18.7775L137.222 18.6041C137.743 18.5427 138.277 18.4834 138.824 18.4308C139.371 18.3781 139.898 18.3539 140.412 18.3539C141.284 18.3409 142.153 18.4503 142.994 18.6787C143.676 18.8645 144.316 19.1813 144.877 19.6115C145.367 19.9989 145.76 20.4958 146.024 21.0623C146.294 21.6705 146.428 22.3305 146.415 22.9959C146.429 23.8849 146.201 24.761 145.756 25.5309C145.288 26.2967 144.644 26.94 143.877 27.4074C142.969 27.9539 141.975 28.3449 140.937 28.5641C139.68 28.8392 138.395 28.9717 137.108 28.9591C134.508 28.9771 131.93 28.4896 129.517 27.5237C128.815 27.2454 128.133 26.922 127.473 26.5558L129.257 23.7904Z" fill="#1D3A3C"/>
<path d="M150.089 12.2173H164.131V15.1627H153.43V18.4549H162.909V21.2071H153.435V25.7876H164.355V28.6848H150.089V12.2173Z" fill="#1D3A3C"/>
<path d="M168.092 12.2173H171.438V25.7591H181.029V28.7045H168.092V12.2173Z" fill="#1D3A3C"/>
<path d="M184.243 12.2173H198.993V15.1627H187.59V19.4733H197.275V22.2233H187.59V28.7045H184.243V12.2173Z" fill="#1D3A3C"/>
<path d="M202.222 12.2173H216.262V15.1627H205.567V18.4549H215.056V21.2071H205.567V25.7876H216.508V28.6848H202.227L202.222 12.2173Z" fill="#1D3A3C"/>
<path d="M220.197 12.2172H228.584C229.696 12.1971 230.805 12.3308 231.88 12.6145C232.721 12.8302 233.507 13.2189 234.189 13.7558C234.792 14.2394 235.263 14.8665 235.56 15.5796C235.863 16.348 236.012 17.1682 235.999 17.9939C236.004 18.5812 235.93 19.1666 235.78 19.7344C235.496 20.8347 234.85 21.8075 233.945 22.4954C233.449 22.8747 232.899 23.1793 232.315 23.3996L235.878 28.7001H231.785L228.683 24.023H223.55V28.7001H220.204L220.197 12.2172ZM228.672 21.1127C229.233 21.1221 229.793 21.0482 230.333 20.8932C230.767 20.7648 231.171 20.553 231.524 20.2699C231.839 20.0119 232.086 19.6792 232.24 19.302C232.403 18.8946 232.484 18.4589 232.477 18.0202C232.497 17.6127 232.419 17.2063 232.251 16.8347C232.082 16.463 231.828 16.1366 231.508 15.8825C230.878 15.3843 229.926 15.1319 228.652 15.1319H223.544V21.1127H228.672Z" fill="#1D3A3C"/>
<path d="M13.2766 39.9999C15.9225 39.9999 18.0675 37.8573 18.0675 35.2142C18.0675 32.5712 15.9225 30.4285 13.2766 30.4285C10.6307 30.4285 8.48578 32.5712 8.48578 35.2142C8.48578 37.8573 10.6307 39.9999 13.2766 39.9999Z" fill="#4FB4A2"/>
<path d="M21.9762 9.57137C24.6221 9.57137 26.767 7.42875 26.767 4.78568C26.767 2.14262 24.6221 0 21.9762 0C19.3303 0 17.1854 2.14262 17.1854 4.78568C17.1854 7.42875 19.3303 9.57137 21.9762 9.57137Z" fill="#4FB4A2"/>
<path d="M34.2519 16.1726C33.6755 15.1326 32.8781 14.2313 31.9157 13.5321C30.9997 12.8923 29.9469 12.4749 28.8411 12.3131C27.5861 12.1499 26.3113 12.2312 25.0873 12.5524C23.5802 12.952 22.1364 13.5603 20.7981 14.3597C20.0034 14.8186 19.2087 15.3281 18.4083 15.8996C17.608 16.4711 16.833 17.0256 16.0777 17.5887L13.9077 19.1989C13.3048 19.6491 12.6773 20.0654 12.028 20.446C10.9742 21.1571 9.72917 21.532 8.45746 21.5214C8.02716 21.507 7.60759 21.3834 7.23831 21.1622C6.86903 20.9411 6.56219 20.6297 6.34668 20.2574C6.11227 19.8403 5.98812 19.3704 5.98595 18.892C5.99585 18.2786 6.17214 17.6793 6.49603 17.1579C6.97165 16.389 7.55854 15.6946 8.23764 15.0973C9.26931 14.203 10.3924 13.4199 11.5884 12.7607C12.573 12.192 13.5902 11.6816 14.6348 11.2321C15.5733 10.8239 16.5004 10.4777 17.4276 10.1708C16.7168 9.56923 16.1321 8.83326 15.707 8.00521C15.2819 7.17716 15.0248 6.27336 14.9505 5.34573C14.1501 5.62724 13.3582 5.95662 12.5804 6.30288C11.3611 6.83935 10.172 7.44173 9.01827 8.10735C7.59637 8.91284 6.24623 9.83866 4.98269 10.8746C3.97385 11.715 3.05577 12.6585 2.24345 13.6897C1.58157 14.5385 1.04358 15.4769 0.645573 16.4767C0.302648 17.3341 0.0926418 18.2388 0.022775 19.1595C-0.0419001 19.9953 0.0313979 20.836 0.23976 21.648C0.442976 22.4291 0.74908 23.1798 1.15003 23.8804C1.75825 24.963 2.63076 25.8743 3.68636 26.5294C4.65957 27.1305 5.75751 27.5012 6.8962 27.6133C8.0909 27.7312 9.29708 27.6359 10.4583 27.3317C11.7022 27.0086 12.8959 26.5171 14.0064 25.8707C14.7394 25.4428 15.447 24.9728 16.1256 24.4631C16.8527 23.9255 17.5826 23.3737 18.321 22.7994C19.0593 22.2251 19.8287 21.6508 20.5247 21.1103C21.2208 20.5927 21.9452 20.1143 22.6947 19.6775C23.8904 18.8699 25.2983 18.4331 26.7416 18.4219C27.2415 18.4454 27.7269 18.5977 28.1506 18.8639C28.5755 19.1308 28.9248 19.502 29.1651 19.9421C29.4991 20.4965 29.6627 21.1367 29.6358 21.7832C29.5799 22.5497 29.3137 23.286 28.8664 23.9114C28.2687 24.8 27.541 25.5943 26.7077 26.2676C25.5378 27.2337 24.2834 28.093 22.9596 28.835C21.7606 29.5294 20.5148 30.1398 19.2312 30.662L18.8 30.8309C19.0171 31.1043 19.214 31.3932 19.389 31.6952C20.1578 33.0185 20.4706 34.5574 20.2795 36.0755C21.9582 35.4045 23.5858 34.6123 25.1493 33.7052C27.1596 32.5812 29.0354 31.2326 30.7405 29.6852C32.1528 28.4202 33.3434 26.9283 34.2632 25.2711C35.0373 23.8608 35.4597 22.2848 35.4947 20.6768C35.4967 19.0907 35.0671 17.5338 34.2519 16.1726Z" fill="#1D3A3C"/>
</svg>
