<svg width="32" height="32" viewBox="0 0 32 32" fill="none" xmlns="http://www.w3.org/2000/svg">
<g opacity="0.2">
<path d="M8.66686 13.3333C8.36953 13.3333 8.08419 13.3786 7.80019 13.42C7.89219 13.1106 7.98686 12.796 8.13886 12.5133C8.29086 12.1026 8.52819 11.7466 8.76419 11.388C8.96153 11 9.30953 10.7373 9.56553 10.4053C9.83353 10.0826 10.1989 9.86796 10.4882 9.59996C10.7722 9.31996 11.1442 9.17996 11.4402 8.98262C11.7495 8.80529 12.0189 8.60929 12.3069 8.51596C12.5842 8.40129 12.8269 8.30262 13.0255 8.21996C13.4282 8.05329 13.6575 7.95729 13.6575 7.95729L13.0109 5.37329C13.0109 5.37329 12.7202 5.44262 12.2149 5.56529C11.9602 5.62929 11.6495 5.70396 11.2962 5.79329C10.9349 5.85996 10.5495 6.04262 10.1202 6.20929C9.69619 6.39862 9.20553 6.52662 8.74953 6.83062C8.29086 7.12129 7.76153 7.36396 7.29486 7.75329C6.84286 8.15462 6.29753 8.50262 5.89486 9.01329C5.45486 9.49062 5.02019 9.99196 4.68286 10.5626C4.29219 11.1066 4.02686 11.704 3.74686 12.2946C3.49353 12.8853 3.28953 13.4893 3.12286 14.076C2.80686 15.252 2.66553 16.3693 2.61086 17.3253C2.56553 18.2826 2.59219 19.0786 2.64819 19.6546C2.66819 19.9266 2.70553 20.1906 2.73219 20.3733C2.75486 20.5186 2.76553 20.5973 2.76553 20.5973L2.80019 20.5893C3.38019 23.2986 5.78419 25.3333 8.66686 25.3333C11.9802 25.3333 14.6669 22.6466 14.6669 19.3333C14.6669 16.02 11.9802 13.3333 8.66686 13.3333ZM23.3335 13.3333C23.0362 13.3333 22.7509 13.3786 22.4669 13.42C22.5589 13.1106 22.6535 12.796 22.8055 12.5133C22.9575 12.1026 23.1949 11.7466 23.4309 11.388C23.6282 11 23.9762 10.7373 24.2322 10.4053C24.5002 10.0826 24.8655 9.86796 25.1549 9.59996C25.4389 9.31996 25.8109 9.17996 26.1069 8.98262C26.4162 8.80529 26.6855 8.60929 26.9735 8.51596C27.2509 8.40129 27.4935 8.30262 27.6922 8.21996C28.0949 8.05329 28.3242 7.95729 28.3242 7.95729L27.6775 5.37329C27.6775 5.37329 27.3869 5.44262 26.8815 5.56529C26.6269 5.62929 26.3162 5.70396 25.9629 5.79329C25.6015 5.85996 25.2162 6.04262 24.7869 6.20929C24.3642 6.39996 23.8722 6.52662 23.4162 6.83196C22.9575 7.12262 22.4282 7.36529 21.9615 7.75462C21.5095 8.15596 20.9642 8.50396 20.5615 9.01329C20.1215 9.49062 19.6869 9.99196 19.3495 10.5626C18.9589 11.1066 18.6935 11.704 18.4135 12.2946C18.1602 12.8853 17.9562 13.4893 17.7895 14.076C17.4735 15.252 17.3322 16.3693 17.2775 17.3253C17.2322 18.2826 17.2589 19.0786 17.3149 19.6546C17.3349 19.9266 17.3722 20.1906 17.3989 20.3733C17.4215 20.5186 17.4322 20.5973 17.4322 20.5973L17.4669 20.5893C18.0469 23.2986 20.4509 25.3333 23.3335 25.3333C26.6469 25.3333 29.3335 22.6466 29.3335 19.3333C29.3335 16.02 26.6469 13.3333 23.3335 13.3333Z" fill="#0D0D0D"/>
</g>
</svg>
