<svg width="253" height="48" viewBox="0 0 253 48" fill="none" xmlns="http://www.w3.org/2000/svg">
<path d="M62.3652 19.1627H56.2725V16.2305H71.7953V19.1627H65.7048V32.7045H62.3652V19.1627Z" fill="white"/>
<path d="M75.1149 24.406C75.1 23.2324 75.3328 22.0687 75.7982 20.9909C76.2459 19.977 76.906 19.0707 77.7339 18.3331C78.602 17.5671 79.6141 16.9814 80.7111 16.6102C83.2097 15.7966 85.9025 15.7966 88.4011 16.6102C89.5001 16.9799 90.5139 17.5657 91.3826 18.3331C92.2131 19.0689 92.8742 19.9756 93.3205 20.9909C93.7878 22.0683 94.0222 23.232 94.0082 24.406C94.0219 25.5893 93.7877 26.7623 93.3205 27.8496C92.8732 28.8752 92.2127 29.7939 91.3826 30.5448C90.5149 31.3214 89.5015 31.9182 88.4011 32.3007C85.9067 33.1405 83.2055 33.1405 80.7111 32.3007C79.6127 31.9168 78.601 31.3201 77.7339 30.5448C76.9051 29.7934 76.2453 28.8747 75.7982 27.8496C75.3335 26.7616 75.1008 25.5889 75.1149 24.406ZM78.4612 24.406C78.4464 25.1957 78.6015 25.9793 78.916 26.704C79.2097 27.375 79.646 27.9741 80.1947 28.4598C80.7604 28.9543 81.4182 29.3325 82.1304 29.5726C83.6996 30.093 85.395 30.093 86.9642 29.5726C87.6767 29.3331 88.3346 28.9548 88.8998 28.4598C89.4437 27.9707 89.8779 27.3724 90.1742 26.704C90.4994 25.9818 90.6643 25.1979 90.6576 24.406C90.6643 23.6191 90.4993 22.8402 90.1742 22.1235C89.8773 21.4668 89.4427 20.8815 88.8998 20.4071C88.331 19.9275 87.6733 19.5644 86.9642 19.3383C85.3899 18.8506 83.7047 18.8506 82.1304 19.3383C81.4211 19.5638 80.7633 19.9271 80.1947 20.4071C79.6465 20.8776 79.2098 21.4638 78.916 22.1235C78.6016 22.8427 78.4464 23.6213 78.4612 24.406Z" fill="white"/>
<path d="M96.3479 16.2178H99.692V25.291C99.6819 25.9664 99.7859 26.6387 99.9996 27.2795C100.189 27.8259 100.502 28.3216 100.914 28.728C101.338 29.1431 101.851 29.4561 102.414 29.6433C103.775 30.0559 105.228 30.0559 106.589 29.6433C107.155 29.4557 107.671 29.1429 108.098 28.728C108.507 28.3199 108.819 27.8247 109.01 27.2795C109.221 26.6382 109.324 25.9661 109.313 25.291V16.2178H112.673V25.6927C112.687 26.7022 112.502 27.7046 112.128 28.6425C111.772 29.5107 111.227 30.289 110.533 30.9206C109.789 31.5752 108.917 32.0691 107.973 32.3714C105.722 33.0606 103.316 33.0606 101.065 32.3714C100.122 32.0691 99.251 31.5752 98.5077 30.9206C97.8121 30.2905 97.2677 29.5118 96.9148 28.6425C96.532 27.7064 96.3393 26.7037 96.3479 25.6927V16.2178Z" fill="white"/>
<path d="M116.725 16.2168H125.116C126.227 16.1967 127.336 16.3304 128.411 16.6141C129.251 16.8326 130.037 17.221 130.72 17.7554C131.32 18.2403 131.789 18.8662 132.087 19.577C132.39 20.3453 132.54 21.1656 132.526 21.9913C132.528 22.5785 132.454 23.1634 132.307 23.7318C132.161 24.2716 131.93 24.7849 131.623 25.2528C131.31 25.7267 130.92 26.1457 130.47 26.4928C129.972 26.8721 129.421 27.1768 128.835 27.397L132.421 32.6975H128.326L125.25 28.0072H120.088V32.6975H116.742L116.725 16.2168ZM125.199 25.1123C125.76 25.1219 126.319 25.0479 126.858 24.8928C127.293 24.7636 127.698 24.5519 128.053 24.2695C128.369 24.0112 128.616 23.6786 128.772 23.3016C128.932 22.8935 129.013 22.4583 129.009 22.0198C129.031 21.6136 128.956 21.208 128.789 20.8368C128.621 20.4647 128.367 20.1376 128.049 19.8821C127.403 19.3839 126.449 19.1315 125.192 19.1315H120.077V25.1123H125.199Z" fill="white"/>
<path d="M137.257 27.7909C137.85 28.1245 138.457 28.4274 139.078 28.6995C139.707 28.9733 140.355 29.2029 141.016 29.3865C141.699 29.5778 142.394 29.7201 143.097 29.8123C143.869 29.9156 144.647 29.9655 145.426 29.9615C146.274 29.9733 147.122 29.9079 147.959 29.7662C148.551 29.6729 149.125 29.4909 149.662 29.2263C150.053 29.0474 150.388 28.7651 150.631 28.4098C150.824 28.1032 150.923 27.747 150.916 27.3848C150.923 27.1039 150.858 26.8258 150.727 26.5771C150.596 26.329 150.402 26.1194 150.165 25.9692C149.464 25.57 148.661 25.3875 147.856 25.4446C147.37 25.4464 146.886 25.4757 146.403 25.5324C145.918 25.5961 145.388 25.6575 144.865 25.73C144.343 25.8024 143.839 25.866 143.327 25.9231C142.857 25.9823 142.384 26.0131 141.91 26.0153C141.192 26.0194 140.476 25.9234 139.783 25.73C139.135 25.555 138.524 25.2659 137.977 24.8762C137.458 24.5018 137.031 24.0148 136.727 23.4518C136.401 22.8385 136.235 22.1532 136.244 21.4589C136.246 21.0064 136.308 20.5563 136.428 20.1201C136.555 19.6685 136.754 19.2406 137.019 18.8537C137.31 18.4265 137.664 18.046 138.07 17.7256C138.543 17.353 139.065 17.0486 139.623 16.8213C140.305 16.5513 141.012 16.352 141.735 16.2265C142.635 16.0756 143.548 16.0021 144.461 16.0071C145.206 16.0064 145.949 16.0474 146.689 16.13C148.121 16.2834 149.535 16.5775 150.91 17.0079C151.535 17.2058 152.147 17.4403 152.744 17.7102L151.292 20.4098C150.803 20.1954 150.302 20.0078 149.791 19.8479C149.242 19.6722 148.683 19.5257 148.117 19.409C147.531 19.2839 146.931 19.1895 146.305 19.1105C145.673 19.0358 145.038 18.9985 144.402 18.9986C143.639 18.9842 142.877 19.0504 142.128 19.1961C141.631 19.2948 141.153 19.468 140.708 19.7097C140.406 19.871 140.153 20.1115 139.977 20.4054C139.844 20.6384 139.773 20.9012 139.77 21.1692C139.769 21.4102 139.829 21.6476 139.946 21.8584C140.062 22.0695 140.232 22.2466 140.438 22.3719C141.048 22.7351 141.754 22.9043 142.462 22.857C142.883 22.8547 143.303 22.8283 143.721 22.778L145.221 22.6046C145.742 22.5431 146.276 22.4839 146.823 22.4312C147.37 22.3785 147.898 22.3544 148.412 22.3544C149.283 22.3414 150.152 22.4507 150.993 22.6792C151.676 22.865 152.315 23.1818 152.876 23.612C153.367 23.9994 153.76 24.4963 154.023 25.0628C154.294 25.6709 154.427 26.331 154.414 26.9964C154.428 27.8854 154.2 28.7615 153.755 29.5313C153.287 30.2972 152.643 30.9405 151.877 31.4079C150.968 31.9544 149.974 32.3453 148.937 32.5645C147.679 32.8396 146.395 32.9721 145.107 32.9596C142.508 32.9776 139.929 32.49 137.516 31.5242C136.815 31.2458 136.132 30.9225 135.473 30.5563L137.257 27.7909Z" fill="white"/>
<path d="M158.088 16.2178H172.13V19.1632H161.43V22.4554H170.908V25.2076H161.434V29.7881H172.354V32.6852H158.088V16.2178Z" fill="white"/>
<path d="M176.092 16.2178H179.438V29.7596H189.029V32.705H176.092V16.2178Z" fill="white"/>
<path d="M192.243 16.2178H206.993V19.1632H195.589V23.4737H205.274V26.2238H195.589V32.705H192.243V16.2178Z" fill="white"/>
<path d="M210.223 16.2178H224.262V19.1632H213.567V22.4554H223.056V25.2076H213.567V29.7881H224.508V32.6852H210.227L210.223 16.2178Z" fill="white"/>
<path d="M228.197 16.2168H236.584C237.695 16.1967 238.805 16.3304 239.88 16.6141C240.72 16.8298 241.507 17.2185 242.189 17.7554C242.791 18.239 243.263 18.8661 243.56 19.5792C243.862 20.3476 244.012 21.1678 243.999 21.9935C244.004 22.5808 243.93 23.1662 243.779 23.734C243.496 24.8343 242.85 25.8071 241.945 26.495C241.449 26.8743 240.899 27.1789 240.315 27.3992L243.878 32.6997H239.785L236.683 28.0226H231.55V32.6997H228.204L228.197 16.2168ZM236.672 25.1123C237.233 25.1217 237.793 25.0478 238.333 24.8928C238.766 24.7644 239.171 24.5526 239.524 24.2695C239.839 24.0115 240.086 23.6788 240.24 23.3016C240.403 22.8942 240.484 22.4585 240.477 22.0198C240.497 21.6123 240.419 21.206 240.251 20.8343C240.082 20.4626 239.828 20.1362 239.508 19.8821C238.878 19.3839 237.926 19.1315 236.652 19.1315H231.544V25.1123H236.672Z" fill="white"/>
<path d="M21.2762 44.0001C23.9221 44.0001 26.067 41.8575 26.067 39.2144C26.067 36.5713 23.9221 34.4287 21.2762 34.4287C18.6303 34.4287 16.4854 36.5713 16.4854 39.2144C16.4854 41.8575 18.6303 44.0001 21.2762 44.0001Z" fill="white"/>
<path d="M29.9764 13.5714C32.6223 13.5714 34.7672 11.4287 34.7672 8.78568C34.7672 6.14262 32.6223 4 29.9764 4C27.3305 4 25.1855 6.14262 25.1855 8.78568C25.1855 11.4287 27.3305 13.5714 29.9764 13.5714Z" fill="white"/>
<path d="M42.2519 20.1726C41.6755 19.1326 40.8781 18.2313 39.9157 17.532C38.9997 16.8922 37.9469 16.4749 36.8411 16.3131C35.5861 16.1499 34.3113 16.2312 33.0873 16.5524C31.5802 16.9519 30.1364 17.5603 28.7981 18.3597C28.0034 18.8185 27.2087 19.3281 26.4083 19.8996C25.608 20.471 24.833 21.0256 24.0777 21.5886L21.9077 23.1989C21.3048 23.649 20.6773 24.0654 20.028 24.4459C18.9742 25.157 17.7292 25.532 16.4575 25.5213C16.0272 25.5069 15.6076 25.3833 15.2383 25.1622C14.869 24.9411 14.5622 24.6297 14.3467 24.2573C14.1123 23.8402 13.9881 23.3703 13.986 22.892C13.9959 22.2785 14.1721 21.6792 14.496 21.1579C14.9716 20.389 15.5585 19.6946 16.2376 19.0972C17.2693 18.203 18.3924 17.4198 19.5884 16.7607C20.573 16.192 21.5902 15.6816 22.6348 15.2321C23.5733 14.8239 24.5004 14.4777 25.4276 14.1708C24.7168 13.5692 24.1321 12.8332 23.707 12.0052C23.2819 11.1771 23.0248 10.2733 22.9505 9.3457C22.1501 9.62721 21.3582 9.95659 20.5804 10.3028C19.3611 10.8393 18.172 11.4417 17.0183 12.1073C15.5964 12.9128 14.2462 13.8386 12.9827 14.8746C11.9738 15.715 11.0558 16.6585 10.2435 17.6897C9.58157 18.5385 9.04358 19.4769 8.64557 20.4767C8.30265 21.3341 8.09264 22.2387 8.02278 23.1594C7.9581 23.9952 8.0314 24.836 8.23976 25.648C8.44298 26.4291 8.74908 27.1798 9.15003 27.8804C9.75825 28.963 10.6308 29.8742 11.6864 30.5294C12.6596 31.1305 13.7575 31.5012 14.8962 31.6132C16.0909 31.7312 17.2971 31.6359 18.4583 31.3317C19.7022 31.0086 20.8959 30.517 22.0064 29.8707C22.7394 29.4428 23.447 28.9728 24.1256 28.4631C24.8527 27.9254 25.5826 27.3737 26.321 26.7994C27.0593 26.2251 27.8287 25.6508 28.5247 25.1103C29.2208 24.5927 29.9452 24.1143 30.6947 23.6774C31.8904 22.8699 33.2983 22.4331 34.7416 22.4219C35.2415 22.4454 35.7269 22.5976 36.1506 22.8639C36.5755 23.1307 36.9248 23.502 37.1651 23.9421C37.4991 24.4965 37.6627 25.1366 37.6358 25.7831C37.5799 26.5497 37.3137 27.286 36.8664 27.9113C36.2687 28.8 35.541 29.5942 34.7077 30.2676C33.5378 31.2337 32.2834 32.0929 30.9596 32.835C29.7606 33.5293 28.5148 34.1398 27.2312 34.662L26.8 34.8309C27.0171 35.1043 27.214 35.3931 27.389 35.6951C28.1578 37.0185 28.4706 38.5573 28.2795 40.0754C29.9582 39.4045 31.5858 38.6123 33.1493 37.7051C35.1596 36.5812 37.0354 35.2325 38.7405 33.6851C40.1528 32.4202 41.3434 30.9282 42.2632 29.271C43.0373 27.8607 43.4597 26.2848 43.4947 24.6768C43.4967 23.0906 43.0671 21.5338 42.2519 20.1726Z" fill="white"/>
</svg>
